<svg width="376" height="200" viewBox="0 0 376 200" fill="none" xmlns="http://www.w3.org/2000/svg">
<g filter="url(#filter0_d_60_1663)">
<rect x="15.5" y="11" width="345" height="170" rx="10" fill="#0A5907"/>
</g>
<mask id="mask0_60_1663" style="mask-type:alpha" maskUnits="userSpaceOnUse" x="15" y="11" width="346" height="170">
<rect x="15.5" y="11" width="345" height="170" rx="10" fill="url(#paint0_linear_60_1663)"/>
</mask>
<g mask="url(#mask0_60_1663)">
<path d="M235.162 131.017C319.497 58.3999 369.639 73.5989 399.857 96.9437L383.472 202.173L-30.6819 212.166L-45.4526 135.505C23.4057 168.712 160.862 194.993 235.162 131.017Z" fill="white" fill-opacity="0.2"/>
</g>
<path d="M328.78 46.6297L234.378 101.037L232.574 103.943C242.067 100.857 242.21 105.217 247.953 104.97C242.737 109.411 238.873 119.526 233.3 121.796C228.763 123.648 220.32 127.287 217.345 128.574L210.493 139.684L212.986 143.025L332.896 81.4946L330.526 48.1556L328.78 46.6297Z" fill="#001C18"/>
<path d="M317.026 125.116C312.318 122.211 311.762 111.357 308.09 106.242C313.955 107.126 317.793 103.005 327.705 108.725L327.069 102.686L231.16 51.1725L203.31 78.1954L201.997 80.6531L329.373 147.574L331.557 145.292L330.331 133.674C327.775 131.987 320.821 127.454 317.026 125.116Z" fill="#001C18"/>
<path d="M327.71 108.725L325.826 110.722C323.728 109.199 321.288 108.213 318.721 107.849C314.65 107.35 313.262 109.378 307.616 108.136C307.085 107.782 306.705 107.244 306.549 106.626C306.393 106.007 306.472 105.353 306.77 104.79L318.855 103.328L327.71 108.725Z" fill="#001C18"/>
<path d="M317.028 125.116C312.319 122.211 311.764 111.357 308.092 106.242C313.957 107.126 317.795 103.005 327.706 108.725L327.07 102.686L225.82 49.5731L203.312 78.1954L331.568 145.278L330.343 133.66C327.776 131.987 320.823 127.454 317.028 125.116Z" fill="#004B40"/>
<path d="M277.052 76.4449L240.386 97.5783L270.677 113.425L309.536 93.4819L277.052 76.4449Z" fill="#001C18"/>
<path d="M232.575 103.943L234.195 106.482C234.195 106.482 236.841 104.436 239.981 105.587C243.122 106.737 245.912 108.695 250.271 106.801C250.585 105.137 250.318 103.417 249.517 101.926C249.517 101.926 238.747 100.361 238.519 100.396C238.291 100.431 232.575 103.943 232.575 103.943Z" fill="#001C18"/>
<path d="M234.378 101.037L232.574 103.943C242.067 100.857 242.21 105.217 247.953 104.97C242.737 109.411 238.873 119.526 233.3 121.796C228.763 123.648 220.32 127.287 217.345 128.574L210.493 139.684L330.447 79.6561L328.78 46.6297L234.378 101.037Z" fill="#004B40"/>
<path d="M276.984 74.5282L233.162 97.0108L263.786 113.1L266.626 111.597L276.984 74.5282Z" fill="#001C18"/>
<path d="M276.984 74.5282L236.229 95.4395L266.626 111.597L276.984 74.5282Z" fill="#001C18"/>
<path d="M205.788 76.9404C205.788 76.9404 258.502 106.013 260.441 107.014C262.38 108.015 266.308 109.678 271.635 107.065C276.963 104.453 328.443 78.6324 328.443 78.6324L327.275 45.2382L326.788 44.4176L275.661 69.3198L230.272 45.7045L205.638 75.9734L205.788 76.9404Z" fill="#001C18"/>
<path d="M205.64 75.9734C205.64 75.9734 258.355 105.046 260.294 106.051C262.233 107.056 266.16 108.711 271.488 106.102C276.816 103.494 327.579 78.0587 327.579 78.0587L326.793 44.4376L275.51 68.3328L230.122 44.7215L205.64 75.9734Z" fill="#87D1A4"/>
<path d="M232.322 43.7425L207.063 75.4747L259.778 104.547C259.778 104.547 262.166 102.95 263.988 102.668C265.81 102.386 270.326 105.37 270.326 105.37L325.149 77.6164L324.696 44.3202L319.396 42.8862L276.497 66.2283L234.06 43.4734L232.322 43.7425Z" fill="#EFE8C5"/>
<path d="M320.399 43.1238C320.366 45.8702 320.296 48.6142 320.221 51.3589L319.944 59.5848L319.583 67.8238L319.374 71.9476L319.122 76.0536L319.195 71.9508L319.303 67.8425L319.577 59.6171L319.938 51.3782C320.073 48.6037 320.214 45.8651 320.399 43.1238Z" fill="#FFD1A3"/>
<path d="M321.168 43.4711C321.177 46.1701 321.184 48.8612 321.136 51.5609L321.001 59.6502L320.784 67.736L320.644 71.7795L320.452 75.823L320.452 71.7766L320.489 67.7325L320.629 59.626L320.85 51.5397C320.938 48.8583 321.033 46.1638 321.168 43.4711Z" fill="#FFD1A3"/>
<path d="M322.151 43.7404C322.188 46.4391 322.168 49.1385 322.176 51.8335L322.119 59.9191L321.944 68.0146L321.833 72.0578L321.686 76.1025L321.653 72.057L321.657 68.01L321.73 59.9219L321.894 51.8323C321.959 49.1341 322.036 46.434 322.151 43.7404Z" fill="#FFD1A3"/>
<path d="M323.106 43.9894C323.164 46.685 323.184 49.3822 323.196 52.0767L323.188 60.1628L323.089 68.2466L323.011 72.2888L322.896 76.3286L322.83 72.2841L322.806 68.2413L322.814 60.1552L322.909 52.072C322.943 49.3828 323.012 46.684 323.106 43.9894Z" fill="#FFD1A3"/>
<path d="M324.049 44.2689C324.131 46.9934 324.173 49.7201 324.203 52.428L324.261 60.602L324.236 68.789L324.195 72.8868L324.114 76.9908L324.015 72.9147L323.956 68.8323L323.918 60.6552L323.943 52.4682C323.945 49.7022 323.975 46.9929 324.049 44.2689Z" fill="#FFD1A3"/>
<path d="M211.625 73.3571C211.625 73.3571 223.45 79.3292 233.22 82.9762C242.991 86.6232 261.814 96.4994 263.989 102.648C268.563 96.3262 274.351 88.176 287.1 84.795C299.85 81.4139 315.637 77.2763 317.639 75.6489C317.89 69.972 319.424 42.8532 319.424 42.8532C315.154 44.3718 310.801 45.6427 306.385 46.6597C299.574 48.1803 278.882 55.9905 276.517 66.2252C272.203 58.9964 266.906 55.1194 257.378 52.4577C247.85 49.7961 234.061 43.4734 234.061 43.4734L211.625 73.3571Z" fill="#FBF9EF"/>
<path d="M263.997 102.655C268.562 96.3262 274.35 88.176 287.099 84.795C299.849 81.4139 315.636 77.2763 317.638 75.6489C317.889 69.972 319.423 42.8532 319.423 42.8532C315.153 44.3718 310.799 45.6427 306.383 46.6597C299.573 48.1803 278.88 55.9905 276.516 66.2252L263.997 102.655Z" fill="#FBF9EF"/>
<path d="M296.471 83.5327C272.755 92.216 263.999 102.655 263.999 102.655C265.833 102.371 270.337 105.356 270.337 105.356L325.159 77.6026C325.159 77.6026 320.043 76.267 317.622 75.6679C315.054 77.7103 309.922 78.5251 296.471 83.5327Z" fill="#FBF9EF"/>
<path d="M246.48 87.2286C237.852 83.1142 211.625 73.3571 211.625 73.3571L207.043 75.4738L259.758 104.547C259.758 104.547 262.145 102.95 263.967 102.667C264.036 96.8223 255.103 91.3436 246.48 87.2286Z" fill="#FBF9EF"/>
<path d="M246.48 87.2286C237.852 83.1142 211.625 73.3571 211.625 73.3571C211.625 73.3571 245.965 89.3745 250.325 91.4286C254.686 93.4827 263.169 99.121 263.998 102.655C264.036 96.8223 255.103 91.3436 246.48 87.2286Z" fill="#FCCE98"/>
<path d="M211.35 74.6229C211.35 74.6229 255.851 96.7841 263.997 102.655C257.794 96.5692 225.462 80.1755 211.35 74.6229Z" fill="#FCCE98"/>
<path d="M210.035 74.8264L216.538 78.1896L223.025 81.5878L235.971 88.4379L248.872 95.3645L255.312 98.8559L261.729 102.38L255.227 99.0165L248.739 95.6182L235.793 88.7682L222.892 81.8376L216.452 78.3501L210.035 74.8264Z" fill="#FCCE98"/>
<path d="M265.831 102.371C267.782 100.886 269.78 99.4681 271.783 98.0534C273.786 96.6386 275.832 95.2909 277.892 93.9573C278.921 93.2865 279.957 92.631 281.009 91.9977C282.061 91.3644 283.114 90.7391 284.21 90.1601C286.405 89.0308 288.664 88.0552 290.932 87.1148C293.2 86.1745 295.505 85.335 297.805 84.4921C300.105 83.6492 302.405 82.8063 304.723 82.0055C307.042 81.2047 309.331 80.3962 311.656 79.5576C313.974 78.7755 316.249 77.8675 318.469 76.8378C317.403 77.4496 316.302 77.9959 315.17 78.4735C314.048 78.9704 312.913 79.4325 311.782 79.8981C309.5 80.8037 307.212 81.6693 304.921 82.5436C300.341 84.2795 295.734 85.9459 291.214 87.8035C288.95 88.7146 286.695 89.665 284.529 90.7614C283.452 91.3127 282.391 91.9107 281.34 92.548L278.193 94.4261C276.103 95.6989 274.035 97.0091 271.983 98.3415C269.931 99.6739 267.877 101.023 265.831 102.371Z" fill="#FCCE98"/>
<path d="M267.791 102.583C271.823 99.9402 275.962 97.4746 280.21 95.186C282.326 94.0401 284.475 92.9424 286.655 91.8929C287.735 91.3616 288.838 90.8718 289.934 90.3666C291.03 89.8615 292.145 89.3984 293.256 88.9359C297.698 87.0821 302.12 85.1702 306.531 83.2436C308.739 82.2826 310.94 81.3063 313.135 80.3146C314.233 79.8214 315.331 79.3283 316.418 78.8163C317.505 78.3044 318.6 77.7952 319.656 77.2145C315.439 79.5449 311.028 81.5001 306.649 83.5036C302.27 85.507 297.84 87.3916 293.399 89.278C288.942 91.097 284.595 93.1979 280.35 95.4343C278.221 96.5495 276.11 97.7068 274.018 98.9062C271.915 100.095 269.837 101.313 267.791 102.583Z" fill="#FCCE98"/>
<path d="M262.702 95.0445L262.227 94.4388C260.647 92.478 253.998 88.1393 247.461 85.2683C241.214 82.5203 222.733 74.1703 222.544 74.089L222.101 73.8712L240.091 48.3621L240.466 48.5373C240.623 48.599 256.132 54.5859 262.264 57.3558C268.397 60.1257 273.619 65.1068 273.672 65.1599L274.035 65.5988L273.991 65.712C273.931 65.8768 267.801 82.0994 262.822 94.7641L262.702 95.0445ZM222.901 73.8332C224.949 74.7437 241.72 82.3274 247.608 84.9223C253.497 87.5172 260.226 91.6595 262.314 93.9671C267.044 81.9178 272.765 66.802 273.322 65.3247C272.614 64.665 267.767 60.2354 262.11 57.6784C256.294 55.0517 242.025 49.5153 240.464 48.9222L222.901 73.8332Z" fill="#004B40"/>
<path d="M268.873 93.9214L268.145 94.9301L278.232 64.7281L278.252 64.725C278.292 64.6656 282.379 58.7958 287.725 55.8489C295.829 51.6117 310.2 47.8938 310.344 47.847L311.292 47.602L311.253 47.8781L307.18 75.0133L307.163 75.1387L306.376 75.3424C274.495 82.4826 268.942 93.8125 268.873 93.9214ZM278.587 64.9063L269.367 92.5683C271.743 89.4182 280.384 80.8224 306.188 75.0032C307.274 67.7731 309.838 50.6624 310.197 48.2747C308.173 48.809 295.378 52.2706 287.932 56.1604C282.81 58.9623 278.856 64.5006 278.587 64.9063Z" fill="#004B40"/>
<path d="M47.17 58.575C47.6033 58.2917 48.0783 58.3 48.595 58.6C49.745 59.2667 50.52 60.1333 50.92 61.2C51.32 62.2667 51.3866 63.3667 51.12 64.5C50.5866 66.7833 49.4033 67.9417 47.57 67.975C46.27 67.975 45.4533 67.5083 45.12 66.575C44.7866 65.625 44.82 64.4333 45.22 63C45.6366 61.5167 46.195 60.3 46.895 59.35C46.9283 58.9167 47.02 58.6583 47.17 58.575ZM49.895 63.95C49.2783 62.9833 48.4616 62.4833 47.445 62.45C46.995 62.4167 46.67 62.5917 46.47 62.975C45.92 63.975 46.3533 64.475 47.77 64.475C48.6866 64.475 49.395 64.3 49.895 63.95ZM65.2735 65.275C65.3901 65.7417 65.3901 66.175 65.2735 66.575C65.0901 67.1083 64.8151 67.375 64.4485 67.375C63.1651 67.3417 62.3068 66.225 61.8735 64.025C61.3401 65.2917 60.7068 66.0917 59.9735 66.425C59.6235 66.5917 59.1735 66.7083 58.6235 66.775C58.0735 66.8417 57.4235 66.875 56.6735 66.875C54.3901 66.875 53.7068 65.6167 54.6235 63.1C54.7235 62.8333 54.8651 62.7 55.0485 62.7C55.1985 62.7 55.3401 62.8583 55.4735 63.175C55.5901 63.475 55.7818 63.65 56.0485 63.7C57.6151 63.95 59.0068 63.8417 60.2235 63.375C60.8735 63.125 61.2651 62.7583 61.3985 62.275C61.3985 62.1917 61.3735 61.9333 61.3235 61.5C61.2735 61.05 61.1901 60.4417 61.0735 59.675C60.8568 58.1417 60.7318 57.2 60.6985 56.85C60.6818 56.5167 60.7568 56.1417 60.9235 55.725L61.4985 54.45C61.5985 54.2167 61.7401 54.1 61.9235 54.1C62.0901 54.1 62.1901 54.2333 62.2235 54.5C62.4735 56.5333 62.6985 58.2083 62.8985 59.525C63.0985 60.8417 63.2818 61.8083 63.4485 62.425C63.7651 63.6417 64.0985 64.3 64.4485 64.4C64.8818 64.5333 65.1568 64.825 65.2735 65.275ZM71.2161 66.525C70.4994 66.475 69.7661 66.3333 69.0161 66.1C68.2827 65.85 67.5494 65.5 66.8161 65.05C66.1161 66.6 65.3244 67.375 64.4411 67.375C64.0244 67.375 63.7411 67.1 63.5911 66.55C63.2911 65.4 63.4161 64.7083 63.9661 64.475C64.0994 64.4083 64.2577 64.375 64.4411 64.375C65.1744 64.375 65.7494 64.1667 66.1661 63.75C66.4494 63.0833 66.7411 62.525 67.0411 62.075C67.3411 61.625 67.6411 61.2833 67.9411 61.05C68.1411 60.9 68.4827 60.8 68.9661 60.75C70.0494 60.6167 70.9161 60.9667 71.5661 61.8C72.3327 62.7667 72.6411 63.6167 72.4911 64.35C72.3411 65.0333 72.1161 65.5667 71.8161 65.95C71.5161 66.3333 71.3161 66.525 71.2161 66.525ZM69.9411 62.8C68.9744 62.2 68.2911 62.2 67.8911 62.8C69.0077 63.4333 70.0411 63.7917 70.9911 63.875C70.8411 63.5083 70.4911 63.15 69.9411 62.8ZM66.8366 58.7C67.2699 57.5 67.6532 56.775 67.9866 56.525C68.6366 56.0583 70.1199 56.2333 72.4366 57.05C73.4199 57.4 74.2949 57.7 75.0616 57.95C75.8782 58.2167 76.8116 58.4417 77.8616 58.625C78.9116 58.7917 80.0782 58.9333 81.3616 59.05C81.7449 59.0833 81.9866 59.1917 82.0866 59.375C82.1699 59.5083 82.1782 59.675 82.1116 59.875C82.0949 59.925 82.0699 59.9833 82.0366 60.05L81.0366 61.7C80.8699 61.9333 80.6032 62.0167 80.2366 61.95C76.5032 61.35 73.5866 61.35 71.4866 61.95C69.4199 62.55 68.1616 62.4167 67.7116 61.55L67.5616 61.275L67.8366 61.1C68.6032 60.6 69.8616 60.2083 71.6116 59.925C71.3449 59.825 71.0616 59.7417 70.7616 59.675C70.4782 59.5917 70.1782 59.5167 69.8616 59.45C69.5449 59.3833 69.1782 59.3417 68.7616 59.325C68.3449 59.3083 67.8699 59.3167 67.3366 59.35C67.1199 59.3833 66.9699 59.3083 66.8866 59.125C66.8199 58.975 66.8032 58.8333 66.8366 58.7ZM78.2362 51.175C79.0362 51.1583 79.5528 51.575 79.7862 52.425C79.8195 52.5417 79.8362 52.675 79.8362 52.825C79.8528 52.975 79.8612 53.1333 79.8612 53.3C79.8612 53.8167 79.8195 54.375 79.7362 54.975C79.6695 55.5583 79.5445 56.175 79.3612 56.825C79.3112 57.025 79.1695 57.175 78.9362 57.275C78.7195 57.375 78.5112 57.3333 78.3112 57.15C78.1112 56.9667 78.0362 56.7167 78.0862 56.4C78.3028 55.0333 78.0445 54.375 77.3112 54.425C77.1945 54.425 76.9445 54.575 76.5612 54.875C74.8612 56.225 73.4362 57.075 72.2862 57.425C70.4195 57.9917 69.2112 58.15 68.6612 57.9C68.1112 57.65 67.9945 57.1917 68.3112 56.525C68.4112 56.3417 68.6695 56.2 69.0862 56.1C70.2528 55.8167 71.2862 55.525 72.1862 55.225C73.0695 54.9083 73.8112 54.5667 74.4112 54.2C74.6945 54.0167 74.9528 53.825 75.1862 53.625C75.4195 53.4083 75.6362 53.1917 75.8362 52.975C76.8528 51.8083 77.6528 51.2083 78.2362 51.175ZM79.8612 68.3C79.9612 68.1667 80.1028 68.125 80.2862 68.175C80.6195 68.2917 80.9362 68.4417 81.2362 68.625C81.5528 68.8083 81.8445 69.0167 82.1112 69.25C82.2445 69.3833 82.2695 69.5333 82.1862 69.7L80.9862 71.6C80.8695 71.7667 80.7195 71.7833 80.5362 71.65C80.3695 71.5167 79.7695 71.1417 78.7362 70.525C78.5528 70.4083 78.5195 70.2667 78.6362 70.1L79.8612 68.3ZM90.0993 61.9C90.7493 60.1167 91.4659 59.2333 92.2493 59.25C92.8326 59.2667 93.3576 59.65 93.8243 60.4C94.2576 61.1167 94.5159 61.9417 94.5993 62.875C94.6826 63.7917 94.5326 65.0167 94.1493 66.55C93.7826 68.0667 93.0576 69.475 91.9743 70.775C90.8909 72.075 89.9826 72.7583 89.2493 72.825C88.6493 72.9083 87.7659 72.825 86.5993 72.575C86.0326 72.4583 85.5326 72.3333 85.0993 72.2C84.6493 72.0833 84.2826 71.9667 83.9993 71.85C83.8159 71.7667 83.7493 71.625 83.7993 71.425C83.8493 71.2083 84.0076 71.125 84.2743 71.175C85.2743 71.325 86.4659 71.2417 87.8493 70.925C88.5326 70.775 89.5326 70.125 90.8493 68.975C91.5159 68.3917 92.0493 67.8667 92.4493 67.4C92.8659 66.95 93.1326 66.5417 93.2493 66.175C93.2326 66.0917 93.1993 65.9917 93.1493 65.875C93.1159 65.7417 93.0743 65.6 93.0243 65.45C92.3243 66.35 91.4826 66.575 90.4993 66.125C89.3826 65.625 89.2493 64.2167 90.0993 61.9ZM92.4743 63.075C91.9909 62.2917 91.4743 62.2583 90.9243 62.975C91.3409 63.4417 91.8576 63.475 92.4743 63.075ZM112.309 63.975C112.742 64.0083 113.017 64.2917 113.134 64.825C113.2 65.0917 113.234 65.3583 113.234 65.625C113.25 65.8917 113.225 66.1667 113.159 66.45C113.042 66.9833 112.775 67.275 112.359 67.325C110.925 67.475 109.967 66.8083 109.484 65.325C109.1 65.8083 108.759 66.075 108.459 66.125C106.875 66.4083 105.675 66.25 104.859 65.65C104.442 65.3333 104.334 64.8833 104.534 64.3C104.85 63.2833 105.425 62.425 106.259 61.725C106.675 61.375 107.1 61.0833 107.534 60.85C107.967 60.6167 108.409 60.4333 108.859 60.3L108.834 59.375C108.834 59.125 108.975 58.7083 109.259 58.125C109.409 57.8083 109.534 57.5583 109.634 57.375C109.75 57.175 109.842 57.025 109.909 56.925C110.025 56.725 110.192 56.6667 110.409 56.75C110.625 56.8333 110.742 56.9333 110.759 57.05C110.775 57.1167 110.784 57.175 110.784 57.225C110.784 57.275 110.784 57.3083 110.784 57.325V57.475C110.784 57.4917 110.784 57.525 110.784 57.575C110.8 57.6083 110.809 57.65 110.809 57.7C110.809 57.75 110.809 57.925 110.809 58.225C110.809 58.5083 110.817 58.9 110.834 59.4C110.85 59.9 110.875 60.3833 110.909 60.85C110.942 61.3 110.984 61.7417 111.034 62.175C111.134 63.0583 111.342 63.6083 111.659 63.825C111.809 63.925 112.025 63.975 112.309 63.975ZM108.959 62.25C108.275 62.5 107.742 62.775 107.359 63.075C107.509 63.0917 107.659 63.1083 107.809 63.125C107.975 63.1417 108.142 63.1417 108.309 63.125C108.492 63.1083 108.642 63.0917 108.759 63.075C108.875 63.0583 108.967 63.0333 109.034 63C109.017 62.8167 108.992 62.5667 108.959 62.25ZM118.223 63.775C118.673 63.8417 118.965 64.1667 119.098 64.75C119.215 65.3 119.223 65.825 119.123 66.325C119.023 66.8417 118.915 67.1333 118.798 67.2C118.731 67.2333 118.665 67.2667 118.598 67.3C118.531 67.3333 118.473 67.35 118.423 67.35C117.623 67.3667 116.99 67.1583 116.523 66.725C116.306 66.5083 116.09 66.2833 115.873 66.05C115.673 65.8 115.481 65.5333 115.298 65.25C114.898 66.1 114.481 66.65 114.048 66.9C113.615 67.1667 113.048 67.3083 112.348 67.325C111.831 67.3417 111.44 67.0667 111.173 66.5C110.906 65.9167 110.856 65.3583 111.023 64.825C111.206 64.2583 111.64 63.975 112.323 63.975C113.323 63.975 113.981 63.6667 114.298 63.05C114.281 62.9667 114.256 62.8417 114.223 62.675C114.19 62.4917 114.156 62.2833 114.123 62.05L113.598 59.225C113.481 58.6417 113.381 58.15 113.298 57.75C113.231 57.3333 113.181 57.0083 113.148 56.775C113.081 56.3083 113.131 55.95 113.298 55.7L114.048 54.55C114.131 54.4333 114.248 54.3417 114.398 54.275C114.731 54.175 114.965 54.3917 115.098 54.925C115.115 54.9917 115.148 55.1917 115.198 55.525C115.265 55.8417 115.34 56.275 115.423 56.825C115.673 58.4917 115.906 59.8167 116.123 60.8C116.356 61.7667 116.565 62.4083 116.748 62.725C117.115 63.3417 117.606 63.6917 118.223 63.775ZM116.023 47.775C116.106 47.325 116.281 47.1083 116.548 47.125C116.865 47.1583 117.031 47.3417 117.048 47.675C117.048 47.6917 117.04 47.7083 117.023 47.725C117.023 47.7417 117.023 47.7667 117.023 47.8C116.973 48.6833 116.806 49.45 116.523 50.1C116.173 50.8667 115.665 51.275 114.998 51.325C114.615 51.3417 114.248 51.175 113.898 50.825C113.781 50.9917 113.648 51.15 113.498 51.3C113.365 51.4333 113.206 51.5417 113.023 51.625C112.54 51.8583 112.09 51.8917 111.673 51.725C110.623 51.275 110.481 50.0333 111.248 48C111.398 47.6333 111.623 47.5 111.923 47.6C111.94 47.6 111.956 47.6083 111.973 47.625C111.973 47.625 111.981 47.625 111.998 47.625C112.265 47.7583 112.348 48.0083 112.248 48.375C112.231 48.4583 112.206 48.5417 112.173 48.625C112.156 48.7083 112.14 48.7917 112.123 48.875C112.04 49.4083 112.156 49.7 112.473 49.75C112.906 49.8 113.273 49.4083 113.573 48.575C113.606 48.4583 113.64 48.3417 113.673 48.225C113.723 48.1083 113.765 47.9833 113.798 47.85C113.898 47.5167 114.081 47.3583 114.348 47.375H114.373C114.656 47.4417 114.781 47.5917 114.748 47.825V47.9C114.731 47.9667 114.715 48.0417 114.698 48.125C114.698 48.1917 114.698 48.2583 114.698 48.325C114.698 48.7417 114.831 48.975 115.098 49.025H115.198C115.598 49.025 115.856 48.7083 115.973 48.075C115.99 48.025 115.998 47.975 115.998 47.925C116.015 47.875 116.023 47.825 116.023 47.775ZM111.598 39.875C111.765 39.425 112.023 39.4083 112.373 39.825C113.973 41.6083 114.523 43.8917 114.023 46.675C113.973 46.925 113.865 47.0583 113.698 47.075C113.381 47.125 113.206 46.9917 113.173 46.675C112.94 44.9583 112.306 43.4667 111.273 42.2C111.09 41.9667 111.04 41.725 111.123 41.475L111.598 39.875ZM118.935 55L120.185 60.875C120.268 61.325 120.335 61.7083 120.385 62.025C120.451 62.325 120.493 62.5667 120.51 62.75C120.526 62.9333 120.535 63.1333 120.535 63.35C120.535 63.5667 120.518 63.7917 120.485 64.025C120.251 66.2417 119.551 67.35 118.385 67.35C117.701 67.3333 117.168 66.9083 116.785 66.075C116.401 65.2417 116.393 64.6083 116.76 64.175C117.11 63.7583 117.56 63.6167 118.11 63.75C118.293 63.8 118.468 63.8083 118.635 63.775C118.601 63.5083 118.526 63.125 118.41 62.625C118.31 62.1083 118.168 61.4667 117.985 60.7C117.801 59.9333 117.635 59.2167 117.485 58.55C117.335 57.8667 117.21 57.2417 117.11 56.675C117.043 56.125 117.293 55.4417 117.86 54.625C117.976 54.4583 118.11 54.3583 118.26 54.325C118.61 54.275 118.835 54.5 118.935 55ZM124.191 49.7C124.525 48.9833 124.741 49.15 124.841 50.2L125.441 56.3C125.941 61.7667 125.825 65.2083 125.091 66.625C124.925 66.925 124.766 67.05 124.616 67C124.45 66.95 124.375 66.55 124.391 65.8C124.408 65.1667 124.341 64.125 124.191 62.675C124.041 61.2083 123.816 59.35 123.516 57.1L122.991 52.95C122.941 52.6 122.991 52.2583 123.141 51.925L124.191 49.7ZM145.836 55.55C147.086 58.0833 147.528 60.9 147.161 64C147.111 64.3833 147.02 64.7583 146.886 65.125C146.77 65.4917 146.595 65.8417 146.361 66.175C145.295 67.7917 143.595 68.725 141.261 68.975C139.645 69.1417 138.361 68.775 137.411 67.875C136.478 66.975 136.02 65.7917 136.036 64.325C136.07 62.7917 136.553 61.3417 137.486 59.975C137.686 59.6917 137.853 59.6167 137.986 59.75C138.153 59.9167 138.153 60.1333 137.986 60.4C137.086 61.9833 136.936 63.275 137.536 64.275C138.12 65.2417 139.303 65.7167 141.086 65.7C143.303 65.6667 145.036 64.9917 146.286 63.675C146.22 62.225 145.52 60.3833 144.186 58.15C143.986 57.8167 143.936 57.5583 144.036 57.375L144.961 55.275C145.195 54.7417 145.486 54.8333 145.836 55.55ZM140.611 51.65C140.711 51.5167 140.853 51.475 141.036 51.525C141.37 51.6417 141.686 51.7917 141.986 51.975C142.303 52.1583 142.595 52.3667 142.861 52.6C142.995 52.7333 143.02 52.8833 142.936 53.05L141.736 54.95C141.62 55.1167 141.47 55.1333 141.286 55C141.12 54.8667 140.52 54.4917 139.486 53.875C139.303 53.7583 139.27 53.6167 139.386 53.45L140.611 51.65ZM150.718 48.875C151.051 48.2917 151.259 48.35 151.343 49.05C151.693 52.15 151.893 54.9833 151.943 57.55C151.993 60.15 152.043 61.725 152.093 62.275C152.159 63.575 152.951 64.275 154.468 64.375C154.984 64.4083 155.276 64.6583 155.343 65.125C155.359 65.2083 155.359 65.3333 155.343 65.5C155.343 65.65 155.326 65.8333 155.293 66.05C155.226 66.45 155.134 66.775 155.018 67.025C154.918 67.2583 154.734 67.375 154.468 67.375C152.118 67.375 150.868 66.2417 150.718 63.975C150.684 63.4583 150.651 62.7583 150.618 61.875C150.584 60.9917 150.551 59.9333 150.518 58.7C150.484 57.5667 150.393 56.4 150.243 55.2C150.109 54 149.918 52.7583 149.668 51.475C149.584 51.0417 149.626 50.7 149.793 50.45L150.718 48.875ZM154.256 64.475C154.339 64.0583 154.481 63.625 154.681 63.175C154.897 62.7083 155.164 62.2167 155.481 61.7C156.631 59.8167 157.814 59.1 159.031 59.55C161.814 60.5667 163.806 61.1 165.006 61.15C165.089 61.15 165.239 61.1583 165.456 61.175C165.672 61.175 165.964 61.175 166.331 61.175C167.114 61.175 167.522 61.1833 167.556 61.2C167.889 61.3 167.997 61.5583 167.881 61.975L167.356 63.55C167.239 63.8667 166.964 64.0167 166.531 64C165.581 63.95 164.789 63.9917 164.156 64.125C164.189 64.175 164.239 64.2167 164.306 64.25C165.072 64.55 166.231 64.5917 167.781 64.375C168.664 64.275 168.922 64.9833 168.556 66.5C168.422 67.0333 168.197 67.325 167.881 67.375C164.797 67.775 163.064 67.4 162.681 66.25C162.614 66.0167 162.564 65.7667 162.531 65.5C162.514 65.2167 162.531 64.9167 162.581 64.6C162.214 64.7667 161.564 65.0667 160.631 65.5C160.164 65.7167 159.731 65.9083 159.331 66.075C158.931 66.2417 158.564 66.3917 158.231 66.525C157.531 66.7917 156.864 67 156.231 67.15C155.597 67.3 155.006 67.375 154.456 67.375H154.231C153.847 66.3917 153.856 65.425 154.256 64.475ZM160.056 62.95C157.672 62.0667 156.031 62.5167 155.131 64.3C156.547 64.2167 158.189 63.7667 160.056 62.95ZM172.36 63.375C172.877 64.0083 173.394 64.35 173.91 64.4C174.377 64.45 174.644 64.6167 174.71 64.9C174.76 65.1 174.76 65.45 174.71 65.95C174.694 66.2 174.652 66.4167 174.585 66.6C174.535 66.7667 174.485 66.9083 174.435 67.025C174.335 67.2583 174.16 67.375 173.91 67.375C172.977 67.375 172.077 66.8417 171.21 65.775C170.177 66.8417 169.044 67.375 167.81 67.375C167.46 67.375 167.235 67.15 167.135 66.7L166.91 65.675C166.86 65.4083 166.927 65.1333 167.11 64.85C167.294 64.55 167.527 64.3917 167.81 64.375C169.794 64.225 171.01 63.7333 171.46 62.9C171.61 62.65 171.769 62.525 171.935 62.525C172.185 62.525 172.31 62.6667 172.31 62.95C172.31 63.0833 172.319 63.1833 172.335 63.25C172.352 63.3167 172.36 63.3583 172.36 63.375ZM170.435 69.7C170.535 69.5667 170.677 69.525 170.86 69.575C171.194 69.6917 171.51 69.8417 171.81 70.025C172.127 70.2083 172.419 70.4167 172.685 70.65C172.819 70.7833 172.844 70.9333 172.76 71.1L171.56 73C171.444 73.1667 171.294 73.1833 171.11 73.05C170.944 72.9167 170.344 72.5417 169.31 71.925C169.127 71.8083 169.094 71.6667 169.21 71.5L170.435 69.7ZM177.839 61.825C178.372 61.825 178.414 62.2667 177.964 63.15C178.43 63.5167 179.005 63.7 179.689 63.7C180.805 63.7167 181.739 62.6917 182.489 60.625C182.605 60.325 182.78 60.2083 183.014 60.275C183.264 60.3583 183.364 60.55 183.314 60.85L183.089 61.725C183.239 61.8417 183.414 61.9583 183.614 62.075C183.83 62.175 184.064 62.2667 184.314 62.35C184.564 62.4333 184.789 62.4917 184.989 62.525C185.205 62.5583 185.389 62.575 185.539 62.575C185.405 62.0583 185.272 61.6833 185.139 61.45C185.005 61.2333 185.03 60.9667 185.214 60.65L185.964 59.375C186.23 59.1083 186.439 59.3167 186.589 60C186.822 61.1667 186.814 62.2833 186.564 63.35C186.314 64.4167 185.897 65.1333 185.314 65.5C185.247 65.55 185.122 65.575 184.939 65.575C183.772 65.625 182.772 65.2917 181.939 64.575C181.305 65.7917 180.48 66.5333 179.464 66.8C178.414 67.0833 177.364 66.675 176.314 65.575C175.314 66.775 174.514 67.375 173.914 67.375C173.58 67.375 173.347 67.1 173.214 66.55C173.147 66.25 173.097 65.975 173.064 65.725C172.997 64.8917 173.272 64.4417 173.889 64.375C175.539 64.2083 176.722 63.475 177.439 62.175C177.572 61.9417 177.705 61.825 177.839 61.825Z" fill="white"/>
<defs>
<filter id="filter0_d_60_1663" x="0.5" y="0" width="375" height="200" filterUnits="userSpaceOnUse" color-interpolation-filters="sRGB">
<feFlood flood-opacity="0" result="BackgroundImageFix"/>
<feColorMatrix in="SourceAlpha" type="matrix" values="0 0 0 0 0 0 0 0 0 0 0 0 0 0 0 0 0 0 127 0" result="hardAlpha"/>
<feOffset dy="4"/>
<feGaussianBlur stdDeviation="7.5"/>
<feComposite in2="hardAlpha" operator="out"/>
<feColorMatrix type="matrix" values="0 0 0 0 0 0 0 0 0 0.403922 0 0 0 0 0.329412 0 0 0 0.12 0"/>
<feBlend mode="normal" in2="BackgroundImageFix" result="effect1_dropShadow_60_1663"/>
<feBlend mode="normal" in="SourceGraphic" in2="effect1_dropShadow_60_1663" result="shape"/>
</filter>
<linearGradient id="paint0_linear_60_1663" x1="15.5" y1="11" x2="376.262" y2="102.601" gradientUnits="userSpaceOnUse">
<stop offset="0.00892858" stop-color="#006754"/>
<stop offset="1" stop-color="#87D1A4"/>
</linearGradient>
</defs>
</svg>
