<svg width="269" height="275" viewBox="0 0 269 275" fill="none" xmlns="http://www.w3.org/2000/svg">
<g clip-path="url('#clip0_18649_43666')">
<path d="M138.874 17.8203H136.668V30.5613H138.874V17.8203Z" fill="#272727"></path>
<path d="M138.874 243.604H136.668V256.344H138.874V243.604Z" fill="#272727"></path>
<path d="M118.78 24.4187L117.09 24.7168L118.433 32.3321L120.123 32.0341L118.78 24.4187Z" fill="#272727"></path>
<path d="M157.128 241.831L155.438 242.129L156.78 249.744L158.471 249.446L157.128 241.831Z" fill="#272727"></path>
<path d="M99.5037 29.4324L97.8906 30.0195L100.535 37.286L102.148 36.6989L99.5037 29.4324Z" fill="#272727"></path>
<path d="M175.015 236.887L173.402 237.475L176.047 244.741L177.66 244.154L175.015 236.887Z" fill="#272727"></path>
<path d="M81.3929 37.714L79.9062 38.5723L83.7727 45.2691L85.2593 44.4108L81.3929 37.714Z" fill="#272727"></path>
<path d="M191.78 228.911L190.293 229.77L194.159 236.466L195.646 235.608L191.78 228.911Z" fill="#272727"></path>
<path d="M64.9947 49.0079L63.6797 50.1113L68.6503 56.035L69.9653 54.9316L64.9947 49.0079Z" fill="#272727"></path>
<path d="M206.905 218.135L205.59 219.238L210.56 225.162L211.875 224.059L206.905 218.135Z" fill="#272727"></path>
<path d="M50.8008 62.9853L49.6953 64.3027L55.619 69.2733L56.7245 67.9558L50.8008 62.9853Z" fill="#272727"></path>
<path d="M219.93 204.895L218.824 206.213L224.748 211.183L225.853 209.866L219.93 204.895Z" fill="#272727"></path>
<path d="M39.2607 79.2184L38.4023 80.7051L45.0992 84.5715L45.9575 83.0849L39.2607 79.2184Z" fill="#272727"></path>
<path d="M230.456 189.595L229.598 191.082L236.294 194.948L237.153 193.462L230.456 189.595Z" fill="#272727"></path>
<path d="M30.704 97.1974L30.1172 98.8105L37.3841 101.454L37.971 99.8409L30.704 97.1974Z" fill="#272727"></path>
<path d="M238.165 172.711L237.578 174.324L244.845 176.969L245.432 175.356L238.165 172.711Z" fill="#272727"></path>
<path d="M25.4072 116.397L25.1094 118.088L32.725 119.429L33.0228 117.739L25.4072 116.397Z" fill="#272727"></path>
<path d="M242.833 154.741L242.535 156.432L250.151 157.774L250.449 156.084L242.833 154.741Z" fill="#272727"></path>
<path d="M31.2527 135.982H18.5117V138.189H31.2527V135.982Z" fill="#272727"></path>
<path d="M257.042 135.982H244.301V138.189H257.042V135.982Z" fill="#272727"></path>
<path d="M32.7284 154.734L25.1133 156.078L25.4122 157.772L33.0273 156.428L32.7284 154.734Z" fill="#272727"></path>
<path d="M250.151 116.38L242.535 117.723L242.833 119.413L250.449 118.07L250.151 116.38Z" fill="#272727"></path>
<path d="M37.3798 172.709L30.1133 175.354L30.7004 176.967L37.9669 174.322L37.3798 172.709Z" fill="#272727"></path>
<path d="M244.845 97.2009L237.578 99.8457L238.165 101.459L245.432 98.814L244.845 97.2009Z" fill="#272727"></path>
<path d="M45.0953 189.604L38.3984 193.471L39.2567 194.957L45.9536 191.091L45.0953 189.604Z" fill="#272727"></path>
<path d="M236.294 79.2195L229.598 83.0859L230.456 84.5726L237.153 80.7062L236.294 79.2195Z" fill="#272727"></path>
<path d="M55.6229 204.889L49.6992 209.859L50.8047 211.177L56.7284 206.206L55.6229 204.889Z" fill="#272727"></path>
<path d="M224.748 62.9806L218.824 67.9512L219.928 69.2662L225.851 64.2956L224.748 62.9806Z" fill="#272727"></path>
<path d="M68.6503 218.133L63.6797 224.057L64.9972 225.162L69.9677 219.238L68.6503 218.133Z" fill="#272727"></path>
<path d="M210.557 49.0079L205.586 54.9316L206.901 56.0351L211.872 50.1114L210.557 49.0079Z" fill="#272727"></path>
<path d="M83.7727 228.897L79.9062 235.594L81.3929 236.452L85.2593 229.755L83.7727 228.897Z" fill="#272727"></path>
<path d="M194.158 37.7044L190.293 44.3984L191.78 45.2567L195.644 38.5627L194.158 37.7044Z" fill="#272727"></path>
<path d="M100.535 236.882L97.8906 244.148L99.5037 244.736L102.149 237.469L100.535 236.882Z" fill="#272727"></path>
<path d="M176.046 29.428L173.402 36.6914L175.015 37.2785L177.659 30.0151L176.046 29.428Z" fill="#272727"></path>
<path d="M118.44 241.855L117.098 249.471L118.788 249.769L120.131 242.153L118.44 241.855Z" fill="#272727"></path>
<path d="M156.784 24.4179L155.441 32.0332L157.132 32.3313L158.475 24.7159L156.784 24.4179Z" fill="#272727"></path>
<path d="M134.257 26.1347L133.523 26.1602L133.656 29.9776L134.39 29.9521L134.257 26.1347Z" fill="#ACACAC"></path>
<path d="M141.878 244.199L141.145 244.225L141.278 248.042L142.012 248.016L141.878 244.199Z" fill="#ACACAC"></path>
<path d="M130.389 26.3239L129.656 26.375L129.922 30.1855L130.655 30.1344L130.389 26.3239Z" fill="#ACACAC"></path>
<path d="M145.627 243.984L144.895 244.035L145.161 247.846L145.894 247.794L145.627 243.984Z" fill="#ACACAC"></path>
<path d="M126.531 26.646L125.801 26.7227L126.199 30.5215L126.93 30.4449L126.531 26.646Z" fill="#ACACAC"></path>
<path d="M149.347 243.648L148.617 243.725L149.016 247.523L149.747 247.447L149.347 243.648Z" fill="#ACACAC"></path>
<path d="M122.684 27.0991L121.957 27.2012L122.488 30.9838L123.215 30.8817L122.684 27.0991Z" fill="#ACACAC"></path>
<path d="M153.055 243.183L152.328 243.285L152.86 247.071L153.587 246.969L153.055 243.183Z" fill="#ACACAC"></path>
<path d="M115.046 28.4157L114.328 28.5684L115.122 32.3046L115.841 32.1519L115.046 28.4157Z" fill="#ACACAC"></path>
<path d="M160.414 241.861L159.695 242.014L160.489 245.75L161.208 245.597L160.414 241.861Z" fill="#ACACAC"></path>
<path d="M111.271 29.2735L110.559 29.4512L111.483 33.1574L112.195 32.9798L111.271 29.2735Z" fill="#ACACAC"></path>
<path d="M164.048 241.016L163.336 241.193L164.26 244.9L164.973 244.722L164.048 241.016Z" fill="#ACACAC"></path>
<path d="M107.526 30.2743L106.82 30.4766L107.873 34.1485L108.578 33.9462L107.526 30.2743Z" fill="#ACACAC"></path>
<path d="M167.659 240.04L166.953 240.242L168.007 243.917L168.713 243.715L167.659 240.04Z" fill="#ACACAC"></path>
<path d="M103.816 31.3923L103.117 31.6191L104.297 35.2521L104.995 35.0253L103.816 31.3923Z" fill="#ACACAC"></path>
<path d="M171.261 238.9L170.562 239.127L171.744 242.763L172.443 242.536L171.261 238.9Z" fill="#ACACAC"></path>
<path d="M96.5246 34.0239L95.8438 34.2988L97.274 37.8407L97.9549 37.5657L96.5246 34.0239Z" fill="#ACACAC"></path>
<path d="M178.275 236.325L177.594 236.6L179.025 240.141L179.705 239.866L178.275 236.325Z" fill="#ACACAC"></path>
<path d="M92.956 35.5099L92.2852 35.8086L93.8388 39.2981L94.5096 38.9994L92.956 35.5099Z" fill="#ACACAC"></path>
<path d="M181.71 234.854L181.039 235.152L182.593 238.642L183.263 238.343L181.71 234.854Z" fill="#ACACAC"></path>
<path d="M89.4413 37.1489L88.7812 37.4707L90.4551 40.9041L91.1152 40.5823L89.4413 37.1489Z" fill="#ACACAC"></path>
<path d="M185.082 233.278L184.422 233.6L186.098 237.036L186.758 236.714L185.082 233.278Z" fill="#ACACAC"></path>
<path d="M85.9765 38.8897L85.3281 39.2344L87.1208 42.6073L87.7692 42.2627L85.9765 38.8897Z" fill="#ACACAC"></path>
<path d="M188.41 231.573L187.762 231.918L189.554 235.291L190.203 234.946L188.41 231.573Z" fill="#ACACAC"></path>
<path d="M79.2555 42.7378L78.6328 43.127L80.657 46.3663L81.2797 45.9771L79.2555 42.7378Z" fill="#ACACAC"></path>
<path d="M194.884 227.8L194.262 228.189L196.288 231.431L196.91 231.042L194.884 227.8Z" fill="#ACACAC"></path>
<path d="M75.9995 44.8492L75.3906 45.2598L77.526 48.4268L78.1349 48.0163L75.9995 44.8492Z" fill="#ACACAC"></path>
<path d="M198.015 225.746L197.406 226.156L199.542 229.323L200.151 228.912L198.015 225.746Z" fill="#ACACAC"></path>
<path d="M72.8168 47.0607L72.2227 47.4922L74.4673 50.5828L75.0614 50.1513L72.8168 47.0607Z" fill="#ACACAC"></path>
<path d="M201.075 223.596L200.48 224.027L202.726 227.118L203.32 226.686L201.075 223.596Z" fill="#ACACAC"></path>
<path d="M69.7115 49.376L69.1328 49.8281L71.4845 52.8381L72.0631 52.386L69.7115 49.376Z" fill="#ACACAC"></path>
<path d="M204.055 221.323L203.477 221.775L205.828 224.785L206.407 224.333L204.055 221.323Z" fill="#ACACAC"></path>
<path d="M63.7645 54.3466L63.2188 54.8379L65.7741 57.6769L66.3199 57.1857L63.7645 54.3466Z" fill="#ACACAC"></path>
<path d="M209.776 216.477L209.23 216.969L211.789 219.809L212.335 219.318L209.776 216.477Z" fill="#ACACAC"></path>
<path d="M60.915 56.9744L60.3867 57.4844L63.0396 60.2325L63.5679 59.7225L60.915 56.9744Z" fill="#ACACAC"></path>
<path d="M212.501 213.92L211.973 214.43L214.628 217.18L215.157 216.67L212.501 213.92Z" fill="#ACACAC"></path>
<path d="M58.1664 59.6984L57.6562 60.2266L60.4035 62.8804L60.9136 62.3523L58.1664 59.6984Z" fill="#ACACAC"></path>
<path d="M215.135 211.31L214.625 211.838L217.375 214.494L217.885 213.965L215.135 211.31Z" fill="#ACACAC"></path>
<path d="M55.5228 62.5287L55.0312 63.0742L57.869 65.6311L58.3605 65.0856L55.5228 62.5287Z" fill="#ACACAC"></path>
<path d="M217.675 208.536L217.184 209.082L220.022 211.638L220.514 211.092L217.675 208.536Z" fill="#ACACAC"></path>
<path d="M50.5146 68.4389L50.0625 69.0176L53.0725 71.3692L53.5246 70.7906L50.5146 68.4389Z" fill="#ACACAC"></path>
<path d="M222.468 202.777L222.016 203.355L225.029 205.709L225.481 205.13L222.468 202.777Z" fill="#ACACAC"></path>
<path d="M48.1738 71.529L47.7422 72.123L50.8324 74.3682L51.264 73.7741L48.1738 71.529Z" fill="#ACACAC"></path>
<path d="M224.709 199.812L224.277 200.406L227.368 202.651L227.799 202.057L224.709 199.812Z" fill="#ACACAC"></path>
<path d="M45.942 74.6999L45.5312 75.3086L48.6976 77.4451L49.1083 76.8364L45.942 74.6999Z" fill="#ACACAC"></path>
<path d="M226.84 196.707L226.43 197.316L229.597 199.451L230.008 198.842L226.84 196.707Z" fill="#ACACAC"></path>
<path d="M43.8267 77.9379L43.4375 78.5605L46.6764 80.5853L47.0657 79.9626L43.8267 77.9379Z" fill="#ACACAC"></path>
<path d="M228.874 193.582L228.484 194.205L231.723 196.23L232.113 195.607L228.874 193.582Z" fill="#ACACAC"></path>
<path d="M39.9229 84.6407L39.5781 85.2891L42.9507 87.0823L43.2955 86.434L39.9229 84.6407Z" fill="#ACACAC"></path>
<path d="M232.583 187.063L232.238 187.711L235.611 189.504L235.956 188.855L232.583 187.063Z" fill="#ACACAC"></path>
<path d="M38.1501 88.0881L37.8281 88.748L41.261 90.4231L41.583 89.7632L38.1501 88.0881Z" fill="#ACACAC"></path>
<path d="M234.275 183.731L233.953 184.391L237.389 186.066L237.711 185.406L234.275 183.731Z" fill="#ACACAC"></path>
<path d="M36.5058 91.5909L36.207 92.2617L39.6962 93.8159L39.995 93.1452L36.5058 91.5909Z" fill="#ACACAC"></path>
<path d="M235.838 180.333L235.539 181.004L239.029 182.557L239.327 181.886L235.838 180.333Z" fill="#ACACAC"></path>
<path d="M34.9784 95.163L34.7031 95.8438L38.2442 97.2759L38.5195 96.5951L34.9784 95.163Z" fill="#ACACAC"></path>
<path d="M237.287 176.88L237.012 177.561L240.553 178.992L240.828 178.311L237.287 176.88Z" fill="#ACACAC"></path>
<path d="M32.3052 102.429L32.0781 103.127L35.7107 104.308L35.9377 103.61L32.3052 102.429Z" fill="#ACACAC"></path>
<path d="M239.828 169.847L239.602 170.545L243.235 171.725L243.461 171.026L239.828 169.847Z" fill="#ACACAC"></path>
<path d="M31.1594 106.134L30.957 106.84L34.6288 107.893L34.8312 107.187L31.1594 106.134Z" fill="#ACACAC"></path>
<path d="M240.929 166.286L240.727 166.992L244.398 168.046L244.601 167.34L240.929 166.286Z" fill="#ACACAC"></path>
<path d="M30.1465 109.877L29.9688 110.59L33.6748 111.515L33.8526 110.802L30.1465 109.877Z" fill="#ACACAC"></path>
<path d="M241.881 162.666L241.703 163.379L245.413 164.303L245.59 163.591L241.881 162.666Z" fill="#ACACAC"></path>
<path d="M29.2623 113.649L29.1094 114.367L32.8453 115.163L32.9983 114.444L29.2623 113.649Z" fill="#ACACAC"></path>
<path d="M242.688 158.999L242.535 159.717L246.271 160.512L246.424 159.793L242.688 158.999Z" fill="#ACACAC"></path>
<path d="M27.8913 121.267L27.7891 121.994L31.5716 122.526L31.6738 121.799L27.8913 121.267Z" fill="#ACACAC"></path>
<path d="M243.969 151.632L243.867 152.359L247.65 152.891L247.752 152.164L243.969 151.632Z" fill="#ACACAC"></path>
<path d="M27.4089 125.11L27.332 125.84L31.1308 126.24L31.2076 125.509L27.4089 125.11Z" fill="#ACACAC"></path>
<path d="M244.405 147.914L244.328 148.645L248.127 149.044L248.204 148.314L244.405 147.914Z" fill="#ACACAC"></path>
<path d="M27.059 128.963L27.0078 129.695L30.8182 129.962L30.8695 129.229L27.059 128.963Z" fill="#ACACAC"></path>
<path d="M244.727 144.189L244.676 144.922L248.486 145.188L248.537 144.455L244.727 144.189Z" fill="#ACACAC"></path>
<path d="M26.8383 132.834L26.8125 133.568L30.6299 133.702L30.6556 132.968L26.8383 132.834Z" fill="#ACACAC"></path>
<path d="M244.912 140.456L244.887 141.189L248.704 141.323L248.73 140.589L244.912 140.456Z" fill="#ACACAC"></path>
<path d="M30.6377 140.453L26.8203 140.586L26.8459 141.32L30.6633 141.186L30.6377 140.453Z" fill="#ACACAC"></path>
<path d="M248.712 132.822L244.895 132.955L244.92 133.689L248.738 133.556L248.712 132.822Z" fill="#ACACAC"></path>
<path d="M30.8105 144.193L27 144.459L27.0511 145.192L30.8616 144.926L30.8105 144.193Z" fill="#ACACAC"></path>
<path d="M248.486 128.972L244.676 129.238L244.727 129.971L248.537 129.705L248.486 128.972Z" fill="#ACACAC"></path>
<path d="M31.1192 147.926L27.3203 148.324L27.3969 149.055L31.1958 148.656L31.1192 147.926Z" fill="#ACACAC"></path>
<path d="M248.15 125.099L244.352 125.5L244.429 126.23L248.227 125.829L248.15 125.099Z" fill="#ACACAC"></path>
<path d="M31.5716 151.634L27.7891 152.166L27.8913 152.893L31.6738 152.362L31.5716 151.634Z" fill="#ACACAC"></path>
<path d="M247.654 121.275L243.871 121.807L243.973 122.534L247.756 122.002L247.654 121.275Z" fill="#ACACAC"></path>
<path d="M32.8342 159.016L29.0977 159.809L29.2501 160.527L32.9866 159.734L32.8342 159.016Z" fill="#ACACAC"></path>
<path d="M246.283 113.658L242.547 114.451L242.699 115.169L246.436 114.377L246.283 113.658Z" fill="#ACACAC"></path>
<path d="M33.6828 162.654L29.9766 163.578L30.1542 164.291L33.8605 163.367L33.6828 162.654Z" fill="#ACACAC"></path>
<path d="M245.409 109.852L241.699 110.777L241.877 111.49L245.586 110.565L245.409 109.852Z" fill="#ACACAC"></path>
<path d="M34.6211 166.282L30.9492 167.334L31.1515 168.04L34.8234 166.988L34.6211 166.282Z" fill="#ACACAC"></path>
<path d="M244.383 106.145L240.711 107.197L240.913 107.903L244.585 106.851L244.383 106.145Z" fill="#ACACAC"></path>
<path d="M35.7113 169.86L32.0781 171.039L32.3048 171.738L35.938 170.558L35.7113 169.86Z" fill="#ACACAC"></path>
<path d="M243.238 102.432L239.605 103.613L239.833 104.312L243.465 103.131L243.238 102.432Z" fill="#ACACAC"></path>
<path d="M38.2366 176.908L34.6953 178.34L34.9705 179.021L38.5118 177.589L38.2366 176.908Z" fill="#ACACAC"></path>
<path d="M240.561 95.174L237.02 96.6055L237.295 97.2863L240.836 95.8547L240.561 95.174Z" fill="#ACACAC"></path>
<path d="M39.708 180.338L36.2188 181.893L36.5175 182.563L40.0067 181.009L39.708 180.338Z" fill="#ACACAC"></path>
<path d="M239.037 91.6052L235.547 93.1582L235.845 93.8291L239.335 92.2761L239.037 91.6052Z" fill="#ACACAC"></path>
<path d="M41.2618 183.747L37.8281 185.42L38.1498 186.08L41.5835 184.407L41.2618 183.747Z" fill="#ACACAC"></path>
<path d="M237.393 88.0813L233.957 89.7578L234.279 90.4178L237.715 88.7413L237.393 88.0813Z" fill="#ACACAC"></path>
<path d="M42.9546 187.076L39.582 188.869L39.9268 189.517L43.2994 187.724L42.9546 187.076Z" fill="#ACACAC"></path>
<path d="M235.615 84.6325L232.242 86.4258L232.587 87.0741L235.96 85.2809L235.615 84.6325Z" fill="#ACACAC"></path>
<path d="M46.6807 193.562L43.4414 195.586L43.8305 196.209L47.0698 194.185L46.6807 193.562Z" fill="#ACACAC"></path>
<path d="M231.727 77.9591L228.484 79.9844L228.873 80.6072L232.116 78.5819L231.727 77.9591Z" fill="#ACACAC"></path>
<path d="M48.7097 196.714L45.543 198.85L45.9536 199.458L49.1203 197.322L48.7097 196.714Z" fill="#ACACAC"></path>
<path d="M229.603 74.6943L226.434 76.832L226.844 77.4408L230.014 75.303L229.603 74.6943Z" fill="#ACACAC"></path>
<path d="M50.8211 199.802L47.7305 202.047L48.162 202.641L51.2526 200.396L50.8211 199.802Z" fill="#ACACAC"></path>
<path d="M227.369 71.5233L224.277 73.7715L224.709 74.3654L227.801 72.1173L227.369 71.5233Z" fill="#ACACAC"></path>
<path d="M53.0694 202.792L50.0586 205.143L50.5105 205.721L53.5213 203.371L53.0694 202.792Z" fill="#ACACAC"></path>
<path d="M225.033 68.453L222.023 70.8047L222.476 71.3833L225.485 69.0317L225.033 68.453Z" fill="#ACACAC"></path>
<path d="M57.8586 208.552L55.0195 211.107L55.5108 211.653L58.3498 209.098L57.8586 208.552Z" fill="#ACACAC"></path>
<path d="M220.034 62.5423L217.195 65.0977L217.687 65.6434L220.526 63.0881L220.034 62.5423Z" fill="#ACACAC"></path>
<path d="M60.4 211.298L57.6523 213.951L58.1624 214.479L60.9101 211.826L60.4 211.298Z" fill="#ACACAC"></path>
<path d="M217.384 59.7086L214.633 62.3633L215.143 62.8917L217.894 60.237L217.384 59.7086Z" fill="#ACACAC"></path>
<path d="M63.0406 213.95L60.3867 216.697L60.9148 217.207L63.5687 214.46L63.0406 213.95Z" fill="#ACACAC"></path>
<path d="M214.633 56.9809L211.977 59.7305L212.505 60.2407L215.161 57.4911L214.633 56.9809Z" fill="#ACACAC"></path>
<path d="M65.782 216.481L63.2266 219.32L63.7723 219.812L66.3277 216.973L65.782 216.481Z" fill="#ACACAC"></path>
<path d="M211.77 54.3211L209.215 57.1602L209.761 57.6514L212.316 54.8124L211.77 54.3211Z" fill="#ACACAC"></path>
<path d="M71.4884 221.326L69.1367 224.336L69.7154 224.788L72.067 221.778L71.4884 221.326Z" fill="#ACACAC"></path>
<path d="M205.824 49.3709L203.473 52.3809L204.051 52.8329L206.403 49.823L205.824 49.3709Z" fill="#ACACAC"></path>
<path d="M74.4728 223.586L72.2266 226.676L72.8205 227.108L75.0667 224.018L74.4728 223.586Z" fill="#ACACAC"></path>
<path d="M202.729 47.0525L200.48 50.1445L201.074 50.5764L203.323 47.4843L202.729 47.0525Z" fill="#ACACAC"></path>
<path d="M77.5266 225.757L75.3906 228.924L75.9994 229.334L78.1354 226.168L77.5266 225.757Z" fill="#ACACAC"></path>
<path d="M199.556 44.8482L197.418 48.0176L198.027 48.4282L200.164 45.2588L199.556 44.8482Z" fill="#ACACAC"></path>
<path d="M80.6603 227.776L78.6367 231.016L79.2595 231.405L81.2831 228.165L80.6603 227.776Z" fill="#ACACAC"></path>
<path d="M196.283 42.7278L194.258 45.9668L194.88 46.356L196.905 43.1171L196.283 42.7278Z" fill="#ACACAC"></path>
<path d="M87.1229 231.566L85.3281 234.941L85.9765 235.286L87.7712 231.911L87.1229 231.566Z" fill="#ACACAC"></path>
<path d="M189.574 38.8911L187.781 42.2637L188.43 42.6084L190.223 39.2358L189.574 38.8911Z" fill="#ACACAC"></path>
<path d="M90.4569 233.284L88.7812 236.717L89.4411 237.039L91.1168 233.606L90.4569 233.284Z" fill="#ACACAC"></path>
<path d="M186.099 37.1329L184.422 40.5684L185.082 40.8905L186.759 37.455L186.099 37.1329Z" fill="#ACACAC"></path>
<path d="M93.8388 234.839L92.2852 238.328L92.956 238.627L94.5096 235.137L93.8388 234.839Z" fill="#ACACAC"></path>
<path d="M182.592 35.5142L181.039 39.0039L181.71 39.3025L183.263 35.8127L182.592 35.5142Z" fill="#ACACAC"></path>
<path d="M97.2792 236.314L95.8477 239.855L96.5285 240.131L97.96 236.589L97.2792 236.314Z" fill="#ACACAC"></path>
<path d="M179.006 34.0075L177.574 37.5488L178.255 37.824L179.687 34.2827L179.006 34.0075Z" fill="#ACACAC"></path>
<path d="M104.299 238.907L103.117 242.543L103.816 242.77L104.997 239.134L104.299 238.907Z" fill="#ACACAC"></path>
<path d="M171.724 31.387L170.543 35.0195L171.241 35.2466L172.422 31.614L171.724 31.387Z" fill="#ACACAC"></path>
<path d="M107.873 240.008L106.82 243.68L107.526 243.882L108.578 240.21L107.873 240.008Z" fill="#ACACAC"></path>
<path d="M168.03 30.2724L166.977 33.9473L167.682 34.1497L168.736 30.4748L168.03 30.2724Z" fill="#ACACAC"></path>
<path d="M111.487 241.022L110.562 244.729L111.275 244.906L112.199 241.2L111.487 241.022Z" fill="#ACACAC"></path>
<path d="M164.284 29.2808L163.359 32.9902L164.072 33.1679L164.997 29.4585L164.284 29.2808Z" fill="#ACACAC"></path>
<path d="M115.135 241.877L114.34 245.613L115.058 245.766L115.854 242.03L115.135 241.877Z" fill="#ACACAC"></path>
<path d="M160.506 28.4242L159.711 32.1602L160.429 32.3131L161.225 28.5771L160.506 28.4242Z" fill="#ACACAC"></path>
<path d="M122.489 243.175L121.957 246.961L122.684 247.063L123.216 243.277L122.489 243.175Z" fill="#ACACAC"></path>
<path d="M152.856 27.0951L152.324 30.8809L153.051 30.9831L153.583 27.1973L152.856 27.0951Z" fill="#ACACAC"></path>
<path d="M126.212 243.67L125.812 247.469L126.543 247.546L126.942 243.747L126.212 243.67Z" fill="#ACACAC"></path>
<path d="M149.027 26.6396L148.625 30.4414L149.355 30.5185L149.757 26.7168L149.027 26.6396Z" fill="#ACACAC"></path>
<path d="M129.93 243.99L129.664 247.801L130.397 247.852L130.662 244.041L129.93 243.99Z" fill="#ACACAC"></path>
<path d="M145.149 26.3094L144.883 30.123L145.615 30.1741L145.881 26.3605L145.149 26.3094Z" fill="#ACACAC"></path>
<path d="M133.68 244.216L133.547 248.033L134.281 248.059L134.414 244.241L133.68 244.216Z" fill="#ACACAC"></path>
<path d="M141.288 26.1241L141.152 29.9414L141.886 29.9674L142.022 26.1501L141.288 26.1241Z" fill="#ACACAC"></path>
<path d="M137.777 244.893C108.981 244.893 81.9046 233.679 61.5435 213.315C41.1792 192.95 29.9648 165.877 29.9648 137.081C29.9648 108.285 41.1792 81.2093 61.5435 60.8482C81.9078 40.4871 108.981 29.2695 137.777 29.2695C166.573 29.2695 193.649 40.4839 214.01 60.8482C234.371 81.2125 245.585 108.285 245.585 137.081C245.585 165.877 234.371 192.954 214.01 213.315C193.646 233.679 166.573 244.893 137.777 244.893ZM137.777 31.8493C109.667 31.8493 83.2412 42.7963 63.3664 62.6711C43.4917 82.5459 32.5446 108.975 32.5446 137.081C32.5446 165.188 43.4917 191.617 63.3664 211.492C83.2412 231.367 109.67 242.314 137.777 242.314C165.884 242.314 192.312 231.367 212.187 211.492C232.062 191.617 243.009 165.188 243.009 137.081C243.009 108.975 232.062 82.5459 212.187 62.6711C192.312 42.7963 165.884 31.8493 137.777 31.8493Z" fill="#272727"></path>
<path d="M137.781 257.207C105.693 257.207 75.5285 244.711 52.8388 222.024C30.1492 199.335 17.6562 169.17 17.6562 137.082C17.6562 104.995 30.1524 74.8299 52.8388 52.1435C75.5285 29.4539 105.693 16.9609 137.781 16.9609C169.868 16.9609 200.033 29.4571 222.723 52.1435C245.412 74.8332 257.905 104.998 257.905 137.082C257.905 169.167 245.409 199.335 222.723 222.024C200.033 244.714 169.868 257.207 137.781 257.207ZM137.781 18.6776C106.154 18.6776 76.4206 30.9934 54.0563 53.3577C31.6919 75.7221 19.3761 105.455 19.3761 137.082C19.3761 168.709 31.6919 198.442 54.0563 220.807C76.4206 243.171 106.154 255.487 137.781 255.487C169.408 255.487 199.141 243.171 221.505 220.807C243.87 198.442 256.186 168.709 256.186 137.082C256.186 105.455 243.87 75.7221 221.505 53.3577C199.141 30.9934 169.408 18.6776 137.781 18.6776Z" fill="#272727"></path>
<path d="M139.227 210.534C138.589 210.534 138.064 210.021 138.051 209.381C138.038 208.73 138.554 208.195 139.204 208.182C140.119 208.163 141.046 208.128 141.961 208.076C142.615 208.044 143.166 208.534 143.204 209.181C143.243 209.828 142.747 210.385 142.1 210.424C141.156 210.479 140.199 210.514 139.252 210.534C139.246 210.534 139.236 210.534 139.23 210.534H139.227ZM133.623 210.431C133.6 210.431 133.578 210.431 133.555 210.431C132.608 210.376 131.655 210.305 130.714 210.215C130.067 210.154 129.594 209.577 129.655 208.933C129.716 208.286 130.289 207.812 130.937 207.873C131.845 207.96 132.769 208.031 133.687 208.083C134.334 208.118 134.83 208.675 134.795 209.323C134.76 209.947 134.241 210.434 133.623 210.434V210.431ZM147.604 209.886C147.024 209.886 146.518 209.458 146.441 208.868C146.354 208.224 146.805 207.632 147.449 207.545C148.357 207.422 149.272 207.277 150.174 207.12C150.815 207.007 151.423 207.435 151.536 208.073C151.649 208.714 151.22 209.323 150.583 209.435C149.652 209.6 148.705 209.748 147.768 209.873C147.713 209.88 147.662 209.883 147.607 209.883L147.604 209.886ZM125.278 209.471C125.21 209.471 125.143 209.464 125.075 209.455C124.141 209.29 123.201 209.11 122.279 208.91C121.645 208.775 121.239 208.147 121.378 207.513C121.513 206.878 122.138 206.472 122.775 206.611C123.668 206.804 124.579 206.981 125.481 207.136C126.122 207.248 126.55 207.857 126.437 208.498C126.338 209.068 125.842 209.471 125.281 209.471H125.278ZM155.852 208.269C155.327 208.269 154.85 207.918 154.715 207.387C154.554 206.759 154.931 206.118 155.562 205.954C156.448 205.725 157.34 205.477 158.219 205.216C158.841 205.029 159.498 205.384 159.684 206.005C159.871 206.627 159.517 207.284 158.895 207.471C157.99 207.741 157.066 207.999 156.151 208.234C156.051 208.26 155.955 208.273 155.858 208.273L155.852 208.269ZM117.094 207.545C116.981 207.545 116.869 207.529 116.756 207.496C115.851 207.226 114.94 206.936 114.044 206.63C113.429 206.421 113.101 205.751 113.31 205.136C113.519 204.521 114.189 204.192 114.804 204.401C115.671 204.698 116.556 204.981 117.429 205.242C118.051 205.429 118.405 206.083 118.221 206.704C118.07 207.213 117.603 207.545 117.094 207.545ZM163.855 205.703C163.385 205.703 162.937 205.416 162.757 204.949C162.522 204.343 162.825 203.661 163.43 203.429C164.277 203.1 165.134 202.749 165.974 202.388C166.57 202.131 167.263 202.405 167.52 203C167.778 203.596 167.504 204.289 166.908 204.546C166.042 204.92 165.156 205.284 164.28 205.622C164.142 205.677 163.997 205.703 163.855 205.703ZM109.191 204.672C109.036 204.672 108.878 204.64 108.727 204.575C107.854 204.199 106.978 203.802 106.128 203.393C105.542 203.113 105.294 202.411 105.574 201.825C105.854 201.239 106.556 200.991 107.142 201.271C107.967 201.664 108.811 202.05 109.658 202.414C110.254 202.672 110.53 203.364 110.273 203.96C110.08 204.405 109.648 204.672 109.191 204.672ZM171.491 202.224C171.069 202.224 170.66 201.996 170.451 201.596C170.148 201.023 170.367 200.311 170.941 200.008C171.749 199.58 172.561 199.132 173.35 198.675C173.913 198.35 174.631 198.543 174.957 199.103C175.282 199.667 175.089 200.385 174.528 200.711C173.714 201.181 172.876 201.645 172.042 202.086C171.868 202.179 171.678 202.221 171.495 202.221L171.491 202.224ZM101.67 200.897C101.471 200.897 101.268 200.846 101.084 200.74C100.266 200.266 99.4449 199.77 98.643 199.264C98.0923 198.917 97.928 198.192 98.2758 197.641C98.6237 197.09 99.3483 196.929 99.8991 197.274C100.675 197.764 101.471 198.243 102.263 198.701C102.827 199.026 103.017 199.744 102.695 200.308C102.476 200.685 102.083 200.897 101.674 200.897H101.67ZM178.677 197.876C178.303 197.876 177.933 197.699 177.707 197.367C177.34 196.833 177.475 196.099 178.01 195.731C178.76 195.216 179.514 194.675 180.248 194.127C180.767 193.738 181.504 193.847 181.894 194.369C182.284 194.891 182.174 195.625 181.656 196.015C180.899 196.582 180.12 197.139 179.343 197.67C179.14 197.809 178.909 197.876 178.68 197.876H178.677ZM94.6461 196.272C94.4014 196.272 94.1566 196.195 93.944 196.041C93.1872 195.477 92.4271 194.888 91.6928 194.295C91.1871 193.886 91.1066 193.145 91.5157 192.64C91.9247 192.134 92.6654 192.053 93.1711 192.462C93.8828 193.039 94.6172 193.606 95.3515 194.153C95.8732 194.54 95.9795 195.277 95.593 195.799C95.3611 196.108 95.0069 196.272 94.6494 196.272H94.6461ZM185.311 192.723C184.983 192.723 184.657 192.588 184.426 192.321C183.997 191.831 184.049 191.087 184.538 190.662C185.231 190.06 185.917 189.435 186.58 188.81C187.054 188.362 187.798 188.385 188.242 188.858C188.687 189.332 188.667 190.076 188.194 190.52C187.508 191.168 186.799 191.812 186.087 192.433C185.865 192.627 185.588 192.723 185.314 192.723H185.311ZM88.2048 190.871C87.9149 190.871 87.6251 190.765 87.3996 190.553C86.7104 189.902 86.0276 189.232 85.3642 188.559C84.9101 188.095 84.9165 187.351 85.3803 186.897C85.8441 186.443 86.588 186.449 87.0421 186.913C87.6831 187.564 88.3465 188.214 89.0132 188.842C89.4866 189.287 89.5092 190.031 89.0615 190.504C88.8296 190.749 88.5172 190.875 88.2048 190.875V190.871ZM191.311 186.839C191.028 186.839 190.748 186.739 190.522 186.533C190.042 186.095 190.007 185.354 190.442 184.871C191.057 184.195 191.669 183.493 192.255 182.794C192.674 182.298 193.414 182.23 193.914 182.649C194.41 183.068 194.474 183.808 194.059 184.308C193.45 185.032 192.819 185.754 192.184 186.453C191.952 186.707 191.633 186.839 191.311 186.839ZM82.4366 184.762C82.1016 184.762 81.7699 184.62 81.5348 184.343C80.9261 183.618 80.3238 182.874 79.7441 182.13C79.3447 181.618 79.4381 180.878 79.9502 180.481C80.4623 180.082 81.2031 180.176 81.5992 180.688C82.1596 181.409 82.7425 182.13 83.3319 182.829C83.7506 183.325 83.6862 184.069 83.1902 184.488C82.9712 184.675 82.7007 184.765 82.4334 184.765L82.4366 184.762ZM196.59 180.298C196.352 180.298 196.113 180.227 195.907 180.079C195.379 179.702 195.257 178.965 195.637 178.436C196.168 177.692 196.696 176.926 197.199 176.163C197.556 175.622 198.287 175.47 198.828 175.828C199.369 176.185 199.521 176.913 199.163 177.457C198.642 178.246 198.101 179.039 197.55 179.808C197.321 180.13 196.96 180.301 196.593 180.301L196.59 180.298ZM77.4091 178.031C77.0259 178.031 76.6523 177.844 76.4268 177.502C75.9051 176.713 75.3962 175.905 74.9067 175.1C74.5685 174.546 74.7488 173.821 75.3028 173.483C75.8568 173.145 76.5814 173.325 76.9196 173.879C77.393 174.662 77.889 175.444 78.3914 176.208C78.7489 176.749 78.6008 177.48 78.0565 177.837C77.8568 177.969 77.6313 178.031 77.4091 178.031ZM201.083 173.19C200.89 173.19 200.696 173.142 200.516 173.042C199.949 172.726 199.743 172.011 200.055 171.444C200.5 170.642 200.931 169.821 201.344 169.003C201.637 168.423 202.342 168.188 202.922 168.481C203.502 168.774 203.737 169.48 203.444 170.059C203.018 170.906 202.571 171.757 202.11 172.584C201.894 172.971 201.495 173.193 201.08 173.193L201.083 173.19ZM73.1965 170.765C72.7681 170.765 72.3527 170.53 72.1465 170.117C71.7214 169.277 71.3092 168.414 70.9162 167.554C70.6457 166.964 70.9066 166.265 71.4992 165.995C72.0886 165.724 72.7875 165.985 73.058 166.578C73.438 167.409 73.8374 168.243 74.2496 169.058C74.5427 169.637 74.3076 170.346 73.7279 170.639C73.5572 170.726 73.3768 170.765 73.1997 170.765H73.1965ZM204.716 165.602C204.568 165.602 204.416 165.573 204.271 165.515C203.669 165.27 203.382 164.581 203.627 163.982C203.975 163.132 204.31 162.265 204.622 161.402C204.845 160.79 205.521 160.478 206.13 160.7C206.742 160.922 207.054 161.599 206.832 162.207C206.51 163.096 206.162 163.992 205.804 164.871C205.618 165.325 205.18 165.602 204.716 165.602ZM69.8631 163.064C69.3832 163.064 68.9323 162.768 68.7584 162.291C68.4331 161.402 68.1239 160.497 67.8341 159.595C67.6344 158.977 67.9758 158.314 68.5941 158.117C69.2125 157.921 69.876 158.259 70.0724 158.877C70.3526 159.747 70.6522 160.626 70.9678 161.486C71.19 162.098 70.8776 162.771 70.2657 162.993C70.1336 163.042 69.9951 163.064 69.8631 163.064ZM207.44 157.644C207.337 157.644 207.231 157.631 207.125 157.602C206.5 157.428 206.133 156.781 206.307 156.153C206.552 155.273 206.783 154.375 206.993 153.483C207.141 152.851 207.775 152.458 208.407 152.607C209.038 152.755 209.431 153.389 209.283 154.02C209.064 154.942 208.825 155.869 208.574 156.781C208.429 157.302 207.956 157.644 207.44 157.644ZM67.4444 155.012C66.913 155.012 66.4299 154.648 66.301 154.107C66.082 153.19 65.8791 152.252 65.6988 151.325C65.5732 150.687 65.9886 150.069 66.6263 149.943C67.264 149.817 67.8824 150.233 68.008 150.871C68.1851 151.769 68.3816 152.677 68.5909 153.566C68.7423 154.198 68.3494 154.832 67.7181 154.983C67.6279 155.006 67.5345 155.016 67.4444 155.016V155.012ZM209.212 149.428C209.151 149.428 209.093 149.425 209.031 149.415C208.391 149.315 207.949 148.713 208.049 148.072C208.191 147.167 208.313 146.246 208.42 145.341C208.494 144.697 209.077 144.236 209.724 144.307C210.368 144.381 210.832 144.964 210.758 145.611C210.648 146.549 210.519 147.499 210.374 148.433C210.284 149.012 209.785 149.428 209.215 149.428H209.212ZM65.9854 146.739C65.396 146.739 64.8872 146.297 64.8195 145.698C64.71 144.758 64.6166 143.804 64.5425 142.864C64.491 142.217 64.9773 141.65 65.6247 141.602C66.2785 141.55 66.8389 142.036 66.8872 142.684C66.958 143.595 67.0482 144.516 67.1545 145.428C67.2286 146.072 66.768 146.658 66.1239 146.732C66.0788 146.739 66.0305 146.739 65.9854 146.739ZM210.014 141.064C210.014 141.064 209.985 141.064 209.969 141.064C209.318 141.038 208.812 140.494 208.838 139.843C208.874 138.932 208.89 138.004 208.89 137.086V136.919C208.89 136.268 209.412 135.74 210.062 135.74H210.065C210.713 135.74 211.238 136.265 211.241 136.912V137.086C211.241 138.036 211.222 138.996 211.186 139.936C211.164 140.571 210.642 141.067 210.011 141.067L210.014 141.064ZM65.4959 138.349C64.8453 138.349 64.3203 137.82 64.3203 137.173V137.086C64.3203 136.168 64.3364 135.241 64.3718 134.326C64.3944 133.675 64.9516 133.17 65.5893 133.196C66.2398 133.218 66.7455 133.766 66.7197 134.413C66.6875 135.299 66.6714 136.197 66.6714 137.086V137.173C66.6714 137.824 66.1432 138.349 65.4959 138.349ZM209.837 132.49C209.228 132.49 208.713 132.023 208.664 131.405C208.593 130.493 208.503 129.572 208.394 128.661C208.316 128.017 208.78 127.431 209.424 127.357C210.072 127.279 210.655 127.743 210.729 128.387C210.838 129.328 210.935 130.281 211.009 131.221C211.061 131.869 210.577 132.436 209.93 132.487C209.898 132.487 209.869 132.49 209.837 132.49ZM65.9693 129.959C65.9242 129.959 65.8791 129.959 65.834 129.952C65.1899 129.878 64.7261 129.295 64.8002 128.651C64.9065 127.711 65.0353 126.761 65.177 125.827C65.2769 125.186 65.8759 124.745 66.52 124.844C67.1609 124.944 67.6022 125.543 67.5023 126.187C67.3638 127.089 67.2415 128.01 67.1352 128.919C67.0675 129.518 66.5587 129.962 65.9693 129.962V129.959ZM208.69 124.165C208.139 124.165 207.65 123.778 207.537 123.218C207.36 122.316 207.16 121.411 206.951 120.525C206.8 119.894 207.189 119.26 207.82 119.108C208.452 118.957 209.086 119.347 209.238 119.978C209.457 120.896 209.66 121.83 209.843 122.761C209.969 123.398 209.556 124.017 208.919 124.142C208.841 124.158 208.764 124.165 208.69 124.165ZM67.4057 121.678C67.3155 121.678 67.2254 121.669 67.1352 121.646C66.5039 121.498 66.111 120.864 66.2592 120.232C66.4749 119.311 66.7133 118.384 66.9645 117.472C67.1384 116.847 67.7858 116.48 68.4106 116.651C69.0354 116.825 69.4025 117.472 69.2318 118.097C68.9871 118.98 68.7584 119.878 68.5491 120.767C68.4202 121.308 67.9371 121.675 67.4057 121.675V121.678ZM206.584 116.029C206.088 116.029 205.624 115.714 205.466 115.215C205.186 114.345 204.883 113.469 204.568 112.609C204.345 112 204.658 111.324 205.267 111.099C205.878 110.873 206.552 111.189 206.777 111.797C207.102 112.686 207.415 113.591 207.705 114.49C207.904 115.108 207.566 115.772 206.948 115.971C206.829 116.01 206.706 116.029 206.587 116.029H206.584ZM69.8019 113.624C69.6698 113.624 69.5346 113.601 69.4025 113.553C68.7906 113.331 68.475 112.657 68.6972 112.045C69.0193 111.157 69.3639 110.258 69.7214 109.379C69.9661 108.776 70.6522 108.49 71.2544 108.735C71.8567 108.979 72.1465 109.665 71.8986 110.268C71.5507 111.118 71.219 111.988 70.9066 112.847C70.7327 113.327 70.2818 113.624 69.8019 113.624ZM203.54 108.203C203.096 108.203 202.667 107.949 202.471 107.517C202.091 106.686 201.688 105.852 201.276 105.037C200.983 104.458 201.215 103.749 201.795 103.456C202.374 103.163 203.083 103.395 203.376 103.974C203.801 104.815 204.217 105.678 204.609 106.535C204.88 107.124 204.619 107.823 204.03 108.094C203.872 108.168 203.704 108.2 203.54 108.2V108.203ZM73.1288 105.894C72.9517 105.894 72.7714 105.855 72.6039 105.768C72.0242 105.479 71.7891 104.77 72.0789 104.19C72.5008 103.346 72.9485 102.496 73.409 101.665C73.7214 101.095 74.4364 100.889 75.0065 101.205C75.5766 101.517 75.7827 102.235 75.4671 102.802C75.0226 103.607 74.591 104.429 74.182 105.247C73.9759 105.659 73.5604 105.897 73.1288 105.897V105.894ZM199.608 100.786C199.212 100.786 198.822 100.583 198.603 100.219C198.126 99.4366 197.63 98.6539 197.128 97.8938C196.77 97.3528 196.919 96.6217 197.46 96.2642C198.001 95.9067 198.732 96.0548 199.089 96.5959C199.608 97.3818 200.123 98.1902 200.613 98.9985C200.951 99.5525 200.774 100.277 200.22 100.615C200.03 100.731 199.817 100.786 199.611 100.786H199.608ZM77.3318 98.6088C77.1096 98.6088 76.8874 98.5477 76.6877 98.4156C76.1434 98.0581 75.9952 97.3302 76.3495 96.7859C76.868 95.9969 77.4091 95.2046 77.9599 94.4349C78.3367 93.9067 79.071 93.7843 79.5992 94.1611C80.1274 94.5379 80.2498 95.2722 79.8729 95.8004C79.3383 96.5476 78.8133 97.3141 78.3141 98.0774C78.0887 98.422 77.7119 98.6088 77.3318 98.6088ZM194.838 93.8712C194.487 93.8712 194.142 93.7166 193.91 93.4171C193.35 92.6957 192.764 91.9743 192.174 91.2754C191.756 90.7794 191.82 90.0354 192.316 89.6167C192.812 89.198 193.556 89.2625 193.975 89.7584C194.584 90.4799 195.186 91.2238 195.769 91.971C196.168 92.4831 196.075 93.2239 195.563 93.6232C195.347 93.7907 195.092 93.8712 194.841 93.8712H194.838ZM82.3496 91.8615C82.0823 91.8615 81.815 91.7714 81.596 91.5878C81.0968 91.1691 81.0324 90.4283 81.4511 89.9291C82.0565 89.2045 82.6878 88.4831 83.3223 87.7809C83.7571 87.3011 84.501 87.2624 84.9841 87.7004C85.464 88.1352 85.5027 88.8792 85.0647 89.3623C84.4495 90.0419 83.8408 90.7407 83.2514 91.4428C83.0195 91.7198 82.6846 91.8648 82.3496 91.8648V91.8615ZM189.295 87.5523C188.992 87.5523 188.686 87.4363 188.458 87.2012C187.814 86.5474 187.15 85.9001 186.487 85.2753C186.013 84.8308 185.991 84.0868 186.435 83.6134C186.88 83.14 187.624 83.1174 188.097 83.5619C188.783 84.2092 189.469 84.8791 190.136 85.5522C190.59 86.016 190.587 86.76 190.123 87.2141C189.894 87.4396 189.595 87.5523 189.298 87.5523H189.295ZM88.1146 85.7423C87.8022 85.7423 87.4898 85.6199 87.2611 85.3751C86.8135 84.9017 86.836 84.1577 87.3062 83.7132C87.9922 83.0627 88.7008 82.4185 89.4126 81.7969C89.9021 81.3686 90.6429 81.4169 91.0712 81.9064C91.4996 82.396 91.4512 83.1367 90.9617 83.5651C90.2725 84.1674 89.5865 84.7922 88.923 85.4202C88.6943 85.636 88.4045 85.7423 88.1146 85.7423ZM183.063 81.9129C182.806 81.9129 182.545 81.8291 182.326 81.652C181.611 81.0755 180.876 80.5087 180.142 79.9644C179.62 79.5779 179.511 78.8404 179.901 78.3186C180.287 77.7969 181.025 77.6874 181.546 78.0771C182.303 78.6407 183.06 79.2268 183.801 79.8195C184.306 80.2253 184.387 80.966 183.981 81.4717C183.749 81.7615 183.408 81.9097 183.063 81.9097V81.9129ZM94.5431 80.3283C94.1856 80.3283 93.8313 80.1641 93.5994 79.8549C93.2097 79.3331 93.316 78.5988 93.8378 78.2091C94.5946 77.6423 95.3708 77.0851 96.1502 76.5505C96.6848 76.1833 97.4159 76.3154 97.7863 76.8532C98.1535 77.3878 98.0214 78.1189 97.4836 78.4893C96.7299 79.0078 95.9795 79.5489 95.2452 80.0964C95.0326 80.2542 94.7879 80.3315 94.5431 80.3315V80.3283ZM176.216 77.0304C176.003 77.0304 175.785 76.9724 175.591 76.85C174.815 76.3637 174.02 75.8838 173.227 75.4265C172.664 75.1012 172.47 74.383 172.796 73.8193C173.121 73.2557 173.839 73.0625 174.403 73.3878C175.224 73.8612 176.045 74.3572 176.847 74.8596C177.398 75.2042 177.562 75.9321 177.218 76.4828C176.995 76.8371 176.612 77.0336 176.223 77.0336L176.216 77.0304ZM101.548 75.7002C101.142 75.7002 100.749 75.4909 100.53 75.1141C100.205 74.5537 100.395 73.8322 100.959 73.5069C101.773 73.0335 102.611 72.5697 103.445 72.1285C104.018 71.8257 104.73 72.0448 105.036 72.618C105.339 73.1913 105.12 73.9031 104.546 74.209C103.741 74.6374 102.93 75.0851 102.141 75.5456C101.954 75.6519 101.751 75.7034 101.551 75.7034L101.548 75.7002ZM168.85 72.9755C168.68 72.9755 168.509 72.9401 168.345 72.8596C167.517 72.4634 166.67 72.0802 165.829 71.7195C165.234 71.4618 164.957 70.7726 165.214 70.1735C165.472 69.5777 166.161 69.3007 166.76 69.5584C167.63 69.932 168.506 70.3281 169.359 70.7372C169.945 71.0174 170.193 71.7195 169.916 72.3056C169.714 72.7275 169.295 72.9755 168.854 72.9755H168.85ZM109.043 71.9159C108.588 71.9159 108.154 71.6518 107.964 71.2074C107.706 70.6116 107.98 69.9191 108.576 69.6615C109.445 69.2846 110.328 68.9207 111.204 68.5825C111.809 68.3474 112.492 68.6469 112.727 69.2524C112.962 69.8579 112.663 70.5407 112.057 70.7758C111.21 71.1043 110.357 71.4554 109.516 71.8193C109.365 71.8869 109.204 71.9159 109.049 71.9159H109.043ZM161.056 69.8064C160.931 69.8064 160.802 69.7871 160.676 69.742C159.813 69.4489 158.931 69.1687 158.048 68.9046C157.427 68.721 157.069 68.064 157.256 67.4424C157.44 66.8208 158.097 66.4633 158.718 66.6501C159.626 66.9207 160.541 67.2105 161.433 67.5133C162.048 67.7226 162.377 68.3893 162.167 69.0044C162 69.494 161.543 69.8032 161.053 69.8032L161.056 69.8064ZM116.927 69.0302C116.421 69.0302 115.954 68.7017 115.8 68.1928C115.613 67.5712 115.964 66.9142 116.589 66.7274C117.49 66.4569 118.415 66.1992 119.333 65.9609C119.961 65.7967 120.605 66.1767 120.766 66.8047C120.93 67.4328 120.55 68.0737 119.922 68.2379C119.033 68.4666 118.141 68.7178 117.268 68.9819C117.155 69.0173 117.043 69.0334 116.93 69.0334L116.927 69.0302ZM152.953 67.5712C152.873 67.5712 152.789 67.5616 152.705 67.5455C151.81 67.3555 150.902 67.1783 150 67.0237C149.359 66.9142 148.931 66.3055 149.04 65.6646C149.15 65.0237 149.761 64.5953 150.399 64.7048C151.33 64.8659 152.27 65.0495 153.195 65.2459C153.829 65.3812 154.235 66.006 154.1 66.6405C153.981 67.1944 153.494 67.5712 152.95 67.5712H152.953ZM125.101 67.0849C124.54 67.0849 124.044 66.6856 123.945 66.1123C123.832 65.4714 124.257 64.8627 124.898 64.7499C125.825 64.5857 126.772 64.4375 127.713 64.3087C128.36 64.2217 128.95 64.6694 129.036 65.3136C129.123 65.9577 128.676 66.5503 128.032 66.6372C127.123 66.7629 126.209 66.9046 125.307 67.0656C125.239 67.0785 125.168 67.0849 125.101 67.0849ZM144.647 66.2991C144.612 66.2991 144.573 66.2991 144.534 66.2926C143.623 66.2057 142.699 66.138 141.784 66.0865C141.137 66.0511 140.637 65.4939 140.676 64.8466C140.711 64.1992 141.265 63.7032 141.916 63.7386C142.86 63.7902 143.816 63.861 144.757 63.9512C145.404 64.0124 145.877 64.5857 145.816 65.233C145.758 65.8417 145.246 66.2991 144.647 66.2991ZM133.446 66.1026C132.827 66.1026 132.309 65.6195 132.273 64.9947C132.235 64.3474 132.731 63.7902 133.378 63.7515C134.318 63.6968 135.278 63.6581 136.225 63.6388C136.895 63.6291 137.413 64.1412 137.426 64.7886C137.439 65.4392 136.924 65.977 136.273 65.9899C135.355 66.0092 134.428 66.0446 133.516 66.0994C133.494 66.0994 133.468 66.0994 133.446 66.0994V66.1026Z" fill="#C9C9C9"></path>
<path d="M137.776 175.386C115.856 175.386 98.0234 157.553 98.0234 135.634C98.0234 113.714 115.856 95.8809 137.776 95.8809C159.696 95.8809 177.529 113.714 177.529 135.634C177.529 157.553 159.696 175.386 137.776 175.386ZM137.776 96.6506C116.281 96.6506 98.7964 114.136 98.7964 135.63C98.7964 157.125 116.285 174.613 137.776 174.613C159.268 174.613 176.756 157.125 176.756 135.63C176.756 114.136 159.268 96.6506 137.776 96.6506Z" fill="#C9C9C9"></path>
<path d="M137.778 182.497C111.939 182.497 90.9141 161.473 90.9141 135.633C90.9141 109.794 111.939 88.7695 137.778 88.7695C163.617 88.7695 184.642 109.794 184.642 135.633C184.642 161.473 163.617 182.497 137.778 182.497ZM137.778 92.396C113.939 92.396 94.5438 111.791 94.5438 135.63C94.5438 159.47 113.939 178.865 137.778 178.865C161.617 178.865 181.012 159.47 181.012 135.63C181.012 111.791 161.617 92.396 137.778 92.396Z" fill="#C9C9C9"></path>
<path d="M267.506 136.53H262.842V140.855H268.04V142.153H261.293V130.156H267.773V131.454H262.842V135.245H267.506V136.527V136.53Z" fill="#272727"></path>
<path d="M268.471 142.585H260.863V129.729H268.203V131.886H263.272V134.82H267.936V136.962H263.272V140.428H268.471V142.585ZM261.723 141.726H267.611V141.284H262.412V136.099H267.076V135.677H262.412V131.026H267.343V130.585H261.723V141.726Z" fill="#272727"></path>
<path d="M133.711 13.0204V1.02344H135.402L139.247 7.0944C140.136 8.50183 140.832 9.76434 141.402 10.9914L141.437 10.9753C141.296 9.37463 141.26 7.91245 141.26 6.04446V1.02344H142.719V13.0204H141.154L137.344 6.93337C136.506 5.59679 135.705 4.228 135.102 2.92685L135.048 2.94618C135.138 4.45989 135.173 5.90275 135.173 7.89313V13.0204H133.714H133.711Z" fill="#F70000"></path>
<path d="M134.956 271.858C135.652 272.287 136.666 272.641 137.732 272.641C139.317 272.641 140.241 271.803 140.241 270.592C140.241 269.472 139.6 268.831 137.98 268.206C136.022 267.514 134.811 266.496 134.811 264.805C134.811 262.937 136.36 261.549 138.692 261.549C139.919 261.549 140.811 261.832 141.346 262.135L140.918 263.397C140.525 263.185 139.726 262.827 138.641 262.827C137.004 262.827 136.38 263.807 136.38 264.625C136.38 265.745 137.111 266.299 138.766 266.94C140.795 267.723 141.829 268.702 141.829 270.464C141.829 272.316 140.457 273.916 137.629 273.916C136.473 273.916 135.207 273.578 134.566 273.15L134.959 271.852L134.956 271.858Z" fill="#272727"></path>
<path d="M137.628 274.354C136.426 274.354 135.067 274.009 134.327 273.516L134.062 273.339L134.707 271.201L135.183 271.494C135.918 271.945 136.871 272.212 137.734 272.212C139.038 272.212 139.815 271.606 139.815 270.595C139.815 269.822 139.489 269.249 137.831 268.611C135.518 267.793 134.388 266.547 134.388 264.811C134.388 262.64 136.159 261.123 138.697 261.123C140.201 261.123 141.138 261.526 141.56 261.767L141.869 261.941L141.164 264.025L140.716 263.78C140.285 263.545 139.573 263.262 138.642 263.262C137.29 263.262 136.81 263.999 136.81 264.63C136.81 265.471 137.302 265.919 138.919 266.543C140.568 267.181 142.256 268.144 142.256 270.469C142.256 272.402 140.823 274.354 137.625 274.354H137.628ZM135.077 272.953C135.66 273.236 136.645 273.494 137.628 273.494C140.407 273.494 141.399 271.932 141.399 270.469C141.399 269.007 140.617 268.118 138.613 267.345C136.929 266.692 135.953 266.041 135.953 264.63C135.953 263.558 136.794 262.402 138.642 262.402C139.473 262.402 140.159 262.592 140.668 262.804L140.819 262.357C140.391 262.176 139.699 261.98 138.694 261.98C136.662 261.98 135.241 263.142 135.241 264.807C135.241 266.173 136.13 267.097 138.124 267.803C139.657 268.392 140.671 269.091 140.671 270.592C140.671 272.093 139.518 273.069 137.731 273.069C136.881 273.069 135.988 272.859 135.212 272.486L135.074 272.949L135.077 272.953Z" fill="#272727"></path>
<path d="M2.72704 133.542L3.86716 137.922C4.11515 138.885 4.34704 139.774 4.50807 140.663H4.56283C4.75929 139.79 5.04271 138.866 5.32935 137.938L6.73678 133.542H8.05403L9.39061 137.852C9.70946 138.885 9.96067 139.79 10.1571 140.663H10.2119C10.3536 139.79 10.5855 138.882 10.8689 137.868L12.096 133.542H13.6451L10.8689 142.158H9.44536L8.12811 138.045C7.82537 137.085 7.57737 136.228 7.36159 135.214H7.32616C7.1136 136.248 6.84628 137.137 6.54354 138.061L5.15543 142.154H3.73189L1.13281 133.539H2.73349L2.72704 133.542Z" fill="#272727"></path>
<path d="M11.1712 142.588H9.11961L7.70574 138.179C7.57047 137.748 7.44486 137.339 7.33214 136.933C7.20331 137.381 7.07127 137.799 6.93922 138.199L5.45127 142.588H3.3997L0.542969 133.113H3.05509L4.27895 137.812C4.37879 138.199 4.47863 138.576 4.56881 138.946C4.68153 138.566 4.79747 138.186 4.91342 137.812L6.41747 133.113H8.36598L9.79595 137.722C9.92478 138.134 10.0375 138.521 10.1438 138.891C10.2404 138.505 10.3467 138.121 10.4497 137.751L11.767 133.113H14.2308L11.1776 142.588H11.1712ZM9.74764 141.729H10.5464L13.0456 133.973H12.4111L11.271 137.986C11.023 138.869 10.775 139.812 10.6237 140.733L10.5657 141.094H9.80239L9.72832 140.759C9.5383 139.919 9.29997 139.036 8.97146 137.98L7.7315 133.973H7.0455L5.73469 138.07C5.45771 138.968 5.17107 139.899 4.97783 140.756L4.90376 141.091H4.1469L4.08248 140.737C3.92467 139.87 3.696 138.985 3.45445 138.047L2.39485 133.97H1.70241L4.04062 141.725H4.83934L6.12761 137.922C6.39815 137.097 6.67834 136.186 6.89735 135.123L6.96821 134.782H7.66709L7.77337 135.123C7.9795 136.105 8.22427 136.949 8.52701 137.912L9.74764 141.722V141.729Z" fill="#272727"></path>
</g>
<defs>
<linearGradient id="paint0_linear_18649_43666" x1="129.761" y1="121.788" x2="146.112" y2="152.828" gradientUnits="userSpaceOnUse">
<stop stop-color="#CBC9C9"></stop>
<stop offset="0.34" stop-color="#D5CFCF"></stop>
<stop offset="0.81" stop-color="white"></stop>
</linearGradient>
<linearGradient id="paint1_linear_18649_43666" x1="131.739" y1="125.54" x2="144.136" y2="149.072" gradientUnits="userSpaceOnUse">
<stop offset="0.19" stop-color="white"></stop>
<stop offset="0.66" stop-color="#D3D2D2"></stop>
<stop offset="1" stop-color="#C5C5C5"></stop>
</linearGradient>
<clipPath id="clip0_18649_43666">
<rect width="267.934" height="273.757" fill="white" transform="translate(0.53125 0.59375)"></rect>
</clipPath>
</defs>
</svg>
