<svg width="512" height="512" viewBox="0 0 512 512" fill="none" xmlns="http://www.w3.org/2000/svg">
<g clip-path="url(#clip0_160_1359)">
<path d="M394.194 116.807C358.002 80.6132 309.88 60.6809 258.695 60.6809C207.51 60.6809 159.389 80.6132 123.196 116.807C87.0035 153 67.0703 201.121 67.0703 252.306C67.0703 303.491 87.0026 351.612 123.196 387.805C159.39 423.998 207.51 443.931 258.695 443.931C309.88 443.931 358.002 423.999 394.194 387.805C430.387 351.612 450.32 303.491 450.32 252.306C450.32 201.121 430.388 152.999 394.194 116.807ZM197.984 175.781L207.16 196.764L203.426 207.548L191.995 202.28L184.422 166.457L193.521 151.365C194.174 150.282 195.474 149.779 196.686 150.14C197.925 150.51 198.736 151.669 198.659 152.96L197.475 172.926C197.417 173.904 197.591 174.882 197.984 175.781ZM319.916 172.926L318.731 152.96C318.655 151.67 319.466 150.511 320.705 150.141C321.915 149.779 323.216 150.283 323.869 151.365L332.969 166.458L325.396 202.281L313.964 207.549L310.23 196.765L319.407 175.782C319.799 174.882 319.974 173.904 319.916 172.926ZM258.695 236.904L251.057 229.265L245.933 208.773C250.586 210.956 255.086 212.16 258.694 212.16C262.303 212.16 266.803 210.957 271.456 208.773L266.332 229.265L258.695 236.904ZM234.973 216.125L237.5 226.232H227.921C229.505 222.978 231.801 219.228 234.973 216.125ZM231.793 152.562H285.597V172.842C285.597 187.524 266.065 199.744 258.695 199.744C251.326 199.744 231.793 187.524 231.793 172.842V152.562ZM282.418 216.124C285.591 219.228 287.887 222.979 289.47 226.232H279.891L282.418 216.124ZM283.079 201.285C287.442 197.601 291.336 193.108 294.057 188.003L301.264 208.815L291.588 207.755C289.175 205.307 286.358 203.067 283.079 201.285ZM318.07 219.328L329.289 214.157L368.929 288.944C370.56 292.021 370.578 295.704 368.976 298.797C366.871 302.861 362.416 305.112 357.899 304.401L353.638 303.731C349.775 303.123 346.569 300.453 345.273 296.763L318.07 219.328ZM285.597 140.145H231.793V124.013C239.702 121.057 249.099 119.451 258.695 119.451C268.291 119.451 277.688 121.057 285.597 124.013V140.145ZM234.311 201.285C231.033 203.067 228.216 205.306 225.804 207.755L216.127 208.816L223.334 188.004C226.054 193.108 229.95 197.602 234.311 201.285ZM188.102 214.157L199.321 219.328L172.117 296.764C170.821 300.454 167.616 303.123 163.753 303.732L159.491 304.402C154.969 305.112 150.519 302.861 148.415 298.797C146.813 295.705 146.83 292.021 148.462 288.944L188.102 214.157ZM211.612 221.801L216.538 221.261C214.04 226.492 213.018 230.606 212.925 230.995C212.483 232.843 212.911 234.792 214.089 236.285C215.266 237.777 217.063 238.648 218.963 238.648H242.88L252.487 248.255V272.172C252.487 275.601 255.267 278.38 258.695 278.38C262.124 278.38 264.903 275.601 264.903 272.172V248.255L274.51 238.648H298.427C300.328 238.648 302.124 237.777 303.301 236.285C304.478 234.792 304.907 232.843 304.465 230.995C304.372 230.606 303.35 226.492 300.853 221.261L305.779 221.801L315.015 248.093C306.538 274.394 305.578 333.229 305.475 343.525L301.213 352.05H216.178L211.916 343.525C211.812 333.229 210.853 274.393 202.376 248.093L211.612 221.801ZM217.978 364.467H299.413C300.369 374.697 302.392 397.996 303.829 425.803C291.225 429.059 278.191 430.948 264.904 431.397V411.235C264.904 407.806 262.125 405.026 258.696 405.026C255.268 405.026 252.488 407.806 252.488 411.235V431.397C239.201 430.948 226.167 429.059 213.563 425.803C214.999 397.996 217.023 374.697 217.978 364.467ZM385.415 379.026C365.577 398.864 341.904 413.469 316.071 422.168C314.401 391.115 312.063 366.161 311.404 359.43L317.223 347.791C317.65 346.938 317.874 345.999 317.879 345.045C317.881 344.496 318.163 300.808 322.821 270.315L333.557 300.878C336.369 308.884 343.324 314.677 351.707 315.997L355.968 316.667C357.175 316.857 358.378 316.949 359.571 316.949C368.075 316.949 375.996 312.239 380.002 304.507C383.477 297.797 383.438 289.805 379.899 283.129L337.79 203.683L345.623 166.632C345.948 165.094 345.677 163.489 344.865 162.142L334.503 144.954C330.926 139.021 323.792 136.261 317.155 138.243C310.366 140.269 305.918 146.623 306.337 153.695L307.433 172.172L305.055 177.61L304.615 172.326C304.334 168.943 301.391 166.423 298.014 166.652V119.865C298.014 117.433 296.594 115.225 294.381 114.216C284.073 109.518 271.733 107.035 258.695 107.035C245.657 107.035 233.318 109.518 223.011 114.216C220.797 115.225 219.377 117.433 219.377 119.865V166.652C216.004 166.428 213.058 168.944 212.776 172.326L212.336 177.61L209.958 172.172L211.054 153.695C211.474 146.623 207.025 140.269 200.237 138.243C193.598 136.261 186.466 139.022 182.889 144.954L172.526 162.142C171.714 163.489 171.443 165.093 171.769 166.632L179.602 203.683L137.492 283.129C133.954 289.805 133.915 297.797 137.39 304.507C141.394 312.24 149.315 316.949 157.819 316.949C159.011 316.949 160.217 316.857 161.423 316.667L165.684 315.997C174.067 314.677 181.021 308.885 183.833 300.878L194.57 270.316C199.226 300.806 199.51 344.496 199.513 345.045C199.518 345.999 199.742 346.938 200.168 347.791L205.987 359.43C205.329 366.161 202.99 391.115 201.321 422.168C175.489 413.469 151.815 398.864 131.977 379.026C98.1276 345.177 79.4866 300.174 79.4866 252.306C79.4866 204.438 98.1276 159.434 131.975 125.586C165.824 91.7382 210.827 73.0972 258.695 73.0972C306.563 73.0972 351.567 91.7382 385.415 125.586C419.263 159.434 437.904 204.438 437.904 252.306C437.904 300.174 419.263 345.177 385.415 379.026Z" fill="#0A5907"/>
</g>
<defs>
<clipPath id="clip0_160_1359">
<rect width="383.25" height="383.25" fill="white" transform="translate(67.0703 60.6809)"/>
</clipPath>
</defs>
</svg>
