<svg width="512" height="512" viewBox="0 0 512 512" fill="none" xmlns="http://www.w3.org/2000/svg">
<path d="M414.389 378.459C414.389 381.636 413.127 384.682 410.881 386.928C408.635 389.174 405.588 390.436 402.412 390.436H114.975C111.798 390.436 108.752 389.174 106.506 386.928C104.26 384.682 102.998 381.636 102.998 378.459C102.998 375.283 104.26 372.237 106.506 369.991C108.752 367.745 111.798 366.483 114.975 366.483H402.412C405.588 366.483 408.635 367.745 410.881 369.991C413.127 372.237 414.389 375.283 414.389 378.459ZM414.389 150.905V318.577C414.389 324.929 411.865 331.022 407.373 335.514C402.881 340.006 396.788 342.53 390.436 342.53H126.951C120.598 342.53 114.506 340.006 110.014 335.514C105.522 331.022 102.998 324.929 102.998 318.577V150.905C102.998 144.552 105.522 138.459 110.014 133.967C114.506 129.475 120.598 126.952 126.951 126.952H390.436C396.788 126.952 402.881 129.475 407.373 133.967C411.865 138.459 414.389 144.552 414.389 150.905ZM312.588 234.741C312.587 232.816 312.123 230.92 311.234 229.214C310.346 227.507 309.059 226.039 307.483 224.935L247.6 183.017C245.806 181.76 243.701 181.019 241.515 180.875C239.328 180.732 237.145 181.19 235.201 182.201C233.257 183.213 231.628 184.738 230.491 186.61C229.354 188.483 228.753 190.632 228.752 192.823V276.659C228.753 278.85 229.354 280.998 230.491 282.871C231.628 284.744 233.257 286.269 235.201 287.28C237.145 288.291 239.328 288.75 241.515 288.606C243.701 288.462 245.806 287.722 247.6 286.465L307.483 244.547C309.059 243.442 310.346 241.975 311.234 240.268C312.123 238.561 312.587 236.665 312.588 234.741Z" fill="#0A5907"/>
</svg>
