<svg width="512" height="512" viewBox="0 0 512 512" fill="none" xmlns="http://www.w3.org/2000/svg">
<g clip-path="url(#clip0_160_1364)">
<path d="M258.696 60.6819C153.033 60.6819 67.0703 146.644 67.0703 252.306C67.0703 357.969 153.033 443.931 258.696 443.931C364.359 443.931 450.321 357.968 450.321 252.306C450.321 146.645 364.357 60.6819 258.696 60.6819ZM258.696 422.873C164.645 422.873 88.1295 346.356 88.1295 252.305C88.1295 158.254 164.645 81.7388 258.696 81.7388C352.747 81.7388 429.262 158.255 429.262 252.306C429.262 346.357 352.746 422.873 258.696 422.873Z" fill="#0A5907"/>
<path d="M258.701 91.4895C170.027 91.4895 97.8848 163.631 97.8848 252.306C97.8848 340.981 170.027 413.123 258.701 413.123C347.376 413.123 419.518 340.981 419.518 252.306C419.518 163.631 347.375 91.4895 258.701 91.4895ZM408.112 274.675L397.131 272.739L395.772 280.454L406.76 282.391C405.52 288.495 403.912 294.465 401.961 300.28L391.482 296.466L388.803 303.828L399.278 307.641C396.998 313.414 394.372 319.012 391.424 324.412L381.793 318.852L377.878 325.636L387.492 331.186C384.252 336.457 380.696 341.513 376.854 346.332L368.374 339.217L363.339 345.219L371.812 352.329C367.72 356.952 363.349 361.322 358.726 365.415L351.612 356.94L345.612 361.976L352.731 370.457C347.912 374.3 342.854 377.857 337.582 381.097L332.035 371.485L325.251 375.402L330.807 385.029C325.407 387.975 319.808 390.602 314.035 392.883L310.222 382.409L302.86 385.089L306.675 395.564C300.859 397.517 294.89 399.125 288.786 400.363L286.846 389.379L279.131 390.74L281.07 401.717C275.027 402.618 268.872 403.166 262.62 403.325V373.465H254.785V403.325C248.534 403.166 242.376 402.618 236.333 401.717L238.273 390.742L230.56 389.379L228.618 400.363C222.514 399.125 216.543 397.517 210.728 395.564L214.543 385.09L207.184 382.409L203.369 392.883C197.595 390.602 191.998 387.975 186.597 385.029L192.154 375.402L185.37 371.485L179.823 381.097C174.551 377.857 169.493 374.3 164.674 370.457L171.791 361.976L165.791 356.94L158.679 365.415C154.055 361.322 149.685 356.952 145.592 352.329L154.065 345.219L149.03 339.217L140.55 346.332C136.707 341.514 133.151 336.457 129.912 331.186L139.526 325.638L135.61 318.853L125.98 324.412C123.032 319.012 120.405 313.414 118.126 307.641L128.6 303.829L125.921 296.468L115.444 300.281C113.492 294.466 111.883 288.496 110.645 282.392L121.633 280.455L120.274 272.741L109.293 274.676C108.391 268.633 107.844 262.476 107.683 256.223H137.543V248.39H107.681C107.842 242.138 108.388 235.981 109.29 229.938L120.272 231.875L121.631 224.16L110.643 222.224C111.882 216.12 113.491 210.149 115.442 204.334L125.918 208.147L128.598 200.785L118.123 196.973C120.405 191.201 123.031 185.603 125.977 180.203L135.608 185.761L139.523 178.977L129.909 173.427C133.149 168.156 136.706 163.099 140.548 158.281L149.027 165.396L154.063 159.395L145.59 152.285C149.682 147.662 154.053 143.291 158.676 139.198L165.791 147.675L171.791 142.639L164.672 134.157C169.491 130.313 174.548 126.757 179.821 123.516L185.368 133.128L192.152 129.212L186.596 119.584C191.996 116.638 197.595 114.011 203.368 111.73L207.181 122.206L214.542 119.527L210.728 109.048C216.542 107.095 222.513 105.487 228.617 104.249L230.557 115.237L238.271 113.875L236.333 102.894C242.376 101.993 248.531 101.445 254.783 101.286V112.43H262.618V101.286C268.869 101.445 275.025 101.993 281.068 102.894L279.129 113.875L286.844 115.237L288.784 104.249C294.888 105.487 300.857 107.095 306.671 109.047L302.858 119.525L310.22 122.205L314.032 111.728C319.805 114.009 325.405 116.636 330.805 119.582L325.248 129.212L332.033 133.127L337.579 123.514C342.851 126.755 347.908 130.311 352.728 134.155L345.609 142.638L351.609 147.673L358.723 139.196C363.347 143.29 367.717 147.661 371.811 152.283L363.337 159.395L368.373 165.396L376.853 158.28C380.696 163.098 384.251 168.154 387.49 173.425L377.876 178.977L381.793 185.76L391.423 180.199C394.369 185.601 396.996 191.199 399.277 196.971L388.802 200.785L391.481 208.146L401.96 204.33C403.912 210.146 405.52 216.116 406.759 222.222L395.771 224.158L397.13 231.873L408.111 229.936C409.013 235.979 409.56 242.135 409.721 248.388H379.863V256.221H409.722C409.561 262.475 409.013 268.632 408.112 274.675Z" fill="#0A5907"/>
<path d="M281.864 276.889C286.846 275.129 290.86 268.895 292.82 260.94L268.939 268.976C271.978 275.382 276.784 278.683 281.864 276.889Z" fill="#0A5907"/>
<path d="M310.644 266.827C315.542 265.095 319.504 259.044 321.5 251.287L297.881 259.234C300.92 265.432 305.657 268.591 310.644 266.827Z" fill="#0A5907"/>
<path d="M235.535 276.889C240.608 278.683 245.419 275.382 248.454 268.975L224.572 260.939C226.534 268.893 230.55 275.13 235.535 276.889Z" fill="#0A5907"/>
<path d="M206.742 266.827C211.739 268.591 216.469 265.432 219.51 259.233L195.891 251.285C197.883 259.043 201.844 265.095 206.742 266.827Z" fill="#0A5907"/>
<path d="M310.95 279.982C303.256 282.702 296.141 273.939 294.744 260.292L294.58 260.347C295.259 274.205 289.829 287.333 282.159 290.046C274.394 292.789 267.226 283.846 265.917 269.991L258.697 272.42L251.479 269.991C250.171 283.846 243 292.788 235.24 290.044C227.56 287.331 222.128 274.202 222.811 260.344L222.646 260.288C221.249 273.938 214.134 282.701 206.439 279.981C198.84 277.293 193.442 264.371 194.006 250.65L191.789 249.905V299.976L258.698 322.497L325.608 299.976V249.905L323.39 250.65C323.954 264.371 318.554 277.293 310.95 279.982Z" fill="#0A5907"/>
<path d="M191.74 206.437L191.784 206.452V233.471L258.694 255.992L325.603 233.471V206.451L325.643 206.437L258.694 182.114L191.74 206.437ZM258.695 222.455L210.402 206.213L258.695 188.668L306.984 206.213L258.695 222.455Z" fill="#0A5907"/>
<path d="M294.826 185.801L258.695 120.288L222.564 185.678L258.695 164.398L294.826 185.801Z" fill="#0A5907"/>
</g>
<defs>
<clipPath id="clip0_160_1364">
<rect width="383.25" height="383.25" fill="white" transform="translate(67.0664 60.6812)"/>
</clipPath>
</defs>
</svg>
