<svg width="512" height="512" viewBox="0 0 512 512" fill="none" xmlns="http://www.w3.org/2000/svg">
<path d="M366.83 293.156V450.661C386.413 450.421 403.361 439.342 411.985 423.112C413.602 424.07 415.399 424.729 417.495 424.729H419.651C423.424 424.729 426.538 422.693 428.454 420.118C430.371 417.543 431.389 414.369 431.389 410.955V398.259V379.274V260.637H425.58C422.406 260.637 419.89 258.062 419.89 254.888C419.89 254.289 419.89 253.63 419.89 252.971C419.89 162.721 346.767 89.5979 256.517 89.5979C166.326 89.5979 93.1427 162.721 93.1427 252.971C93.1427 253.63 93.1427 254.229 93.1427 254.888C93.2026 258.062 90.6274 260.637 87.4533 260.637H81.7041V410.955C81.7041 414.369 82.7222 417.543 84.6386 420.118C86.4951 422.693 89.6692 424.729 93.4421 424.729H95.6579C97.5744 424.729 99.2512 424.19 100.808 423.352C109.492 439.402 126.38 450.421 145.904 450.661V293.156C130.513 293.336 116.858 300.223 107.456 311.003V266.207C112.247 265.308 115.78 261.296 116.259 256.385L116.379 255.846V254.109C116.379 215.362 132.07 180.328 157.462 154.935C182.855 129.543 217.889 113.852 256.636 113.852C295.384 113.852 330.418 129.543 355.81 154.935C381.203 180.328 396.893 215.362 396.893 254.109V255.307V255.367C396.893 260.697 400.666 265.188 405.817 266.207V311.542C396.354 300.462 382.401 293.336 366.83 293.156Z" fill="#0A5907"/>
<path opacity="0.5" d="M425.573 260.637H431.382H436.593C439.707 260.637 442.222 258.122 442.282 255.068C442.282 254.349 442.282 253.69 442.282 252.971C442.282 150.384 359.098 67.2 256.51 67.2C153.922 67.2 70.7383 150.384 70.7383 252.971C70.7383 253.69 70.7383 254.349 70.7383 255.068C70.7982 258.182 73.3135 260.637 76.4276 260.637H81.6379H87.447C90.621 260.637 93.1962 258.062 93.1363 254.888C93.1363 254.289 93.1363 253.63 93.1363 252.971C93.1363 162.721 166.259 89.5979 256.51 89.5979C346.761 89.5979 419.884 162.721 419.884 252.971C419.884 253.63 419.884 254.229 419.884 254.888C419.884 258.062 422.399 260.637 425.573 260.637Z" fill="#0A5907"/>
<path d="M60.8027 381.79C60.8027 392.15 69.187 400.594 79.5476 400.714V343.162C69.187 343.282 60.8027 351.726 60.8027 362.147V381.79Z" fill="#0A5907"/>
<path d="M433.604 400.714C443.964 400.594 452.348 392.15 452.348 381.79V362.147C452.348 351.726 443.964 343.342 433.604 343.162V400.714Z" fill="#0A5907"/>
<path opacity="0.5" d="M149.2 293.156V451.199H168.304C171.299 451.199 173.694 448.804 173.694 445.81V298.546C173.694 295.552 171.299 293.156 168.304 293.156H149.2Z" fill="#0A5907"/>
<path opacity="0.5" d="M338.615 298.546V445.81C338.615 448.804 341.011 451.199 344.005 451.199H363.109V293.156H344.005C341.011 293.156 338.615 295.552 338.615 298.546Z" fill="#0A5907"/>
</svg>
