<svg width="81" height="80" viewBox="0 0 81 80" fill="none" xmlns="http://www.w3.org/2000/svg">
<g opacity="0.5">
<circle cx="40.5" cy="40" r="40" fill="#0A5907"/>
<circle cx="40.5" cy="40" r="40" stroke="white"/>
</g>
<path d="M64.9719 21.7699L40.475 30.1426L15.9533 21.7699L4.22656 38.8134L40.475 51.2109L76.6986 38.8134L64.9719 21.7699Z" fill="#15723C"/>
<path opacity="0.45" d="M8.5 38.1177L38.5621 49.6208L28.2267 39.3848C28.2267 39.3848 11.2578 35.2854 8.5 38.1177Z" fill="#240F4F"/>
<path opacity="0.45" d="M72.4508 38.1177L42.3887 49.6208L52.7241 39.3848C52.6992 39.3848 69.6682 35.2854 72.4508 38.1177Z" fill="#240F4F"/>
<path d="M40.475 51.2109L4.22656 38.8134V40.4283L40.475 52.8258L76.6986 40.4283V38.8134L40.475 51.2109Z" fill="#0A5907"/>
<path d="M21.1699 58.6643L25.3687 47.6581L38.8842 52.2792L21.1699 58.6643Z" fill="#15723C"/>
<path opacity="0.45" d="M22.3379 55.4842L38.8845 52.2792L25.3689 47.6581L22.3379 55.4842Z" fill="#15723C"/>
<path d="M40.4743 51.7079L21.1699 58.6644L22.6109 60.1799L40.4743 53.8197L58.3128 60.1799L59.7786 58.6644L40.4743 51.7079Z" fill="#0A5907"/>
<path d="M59.7782 58.6643L55.5546 47.6581L42.0391 52.2792L59.7782 58.6643Z" fill="#15723C"/>
<path opacity="0.45" d="M58.5856 55.4842L42.0391 52.2792L55.5546 47.6581L58.5856 55.4842Z" fill="#15723C"/>
<path d="M40.475 53.8196C41.2022 53.8196 41.7917 53.2301 41.7917 52.5029C41.7917 51.7756 41.2022 51.1861 40.475 51.1861C39.7477 51.1861 39.1582 51.7756 39.1582 52.5029C39.1582 53.2301 39.7477 53.8196 40.475 53.8196Z" fill="white" fill-opacity="0.5"/>
<path d="M63.9289 21.7699L40.4754 33.4469L17.022 21.7699C15.9537 23.186 7.35742 37.5214 7.35742 37.5214C7.4568 37.5214 7.53134 37.5463 7.63071 37.5463C29.1959 39.7078 35.1835 46.4904 37.1711 48.1301C39.1587 49.7947 40.5003 49.6208 40.5003 49.6208C40.5003 49.6208 41.8419 49.7947 43.8295 48.1301C45.8171 46.4904 51.8046 39.7078 73.3699 37.5463C73.4692 37.5463 73.5438 37.5214 73.6431 37.5214C73.5935 37.5214 64.9723 23.2109 63.9289 21.7699Z" fill="#F5B304"/>
<path d="M73.5935 37.5214C73.4941 37.5214 73.4196 37.5463 73.3202 37.5463C51.755 39.7078 45.7674 46.4904 43.7798 48.1301C41.7922 49.7947 40.4506 49.6208 40.4506 49.6208C40.4506 49.6208 39.109 49.7947 37.1214 48.1301C35.1339 46.4904 29.1463 39.7078 7.58106 37.5463C7.48168 37.5463 7.40714 37.5214 7.30776 37.5214C7.13385 37.7947 7.30776 37.9935 7.30776 37.9935C29.0966 40.1053 34.8854 46.9127 36.873 48.5773C38.8606 50.2171 40.4258 50.0929 40.4258 50.0929C40.4258 50.0929 41.991 50.2171 43.9786 48.5773C45.9661 46.9376 51.755 40.1301 73.5438 37.9935C73.5935 37.9935 73.7674 37.7947 73.5935 37.5214Z" fill="#0A5907"/>
<path d="M63.0347 20.4034C51.0347 17.5214 40.4508 27.3848 40.4508 27.3848C40.4508 27.3848 29.867 17.5214 17.867 20.4034C17.867 20.4034 14.4632 25.6208 9.76758 34.4904C9.76758 34.4904 33.3949 37.1487 40.4508 47.0618C47.5067 37.1487 71.134 34.4904 71.134 34.4904C66.4384 25.6208 63.0347 20.4034 63.0347 20.4034Z" fill="#F5EFFB"/>
<path d="M71.133 34.4903C71.133 34.4903 47.5057 37.1487 40.4498 47.0618C33.4187 37.1487 9.79138 34.4903 9.79138 34.4903C9.79138 34.4903 9.79138 35.2854 8.47461 36.8506C8.47461 36.8506 29.9156 38.3909 37.7168 47.2854C39.5554 49.3723 40.4498 49.1239 40.4498 49.1239C40.4498 49.1239 41.369 49.3723 43.1827 47.2854C50.9591 38.3909 72.4249 36.8506 72.4249 36.8506C71.133 35.2605 71.133 34.4903 71.133 34.4903Z" fill="#DFCBF4"/>
<path d="M61.6931 21.4469C61.6931 21.4469 52.7241 19.1611 40.4508 28.6767C28.2024 19.186 19.2086 21.4469 19.2086 21.4469L13.1465 33.2233C31.5813 34.4903 40.4508 43.8071 40.4508 43.8071C40.4508 43.8071 49.3204 34.4903 67.7552 33.2233L61.6931 21.4469ZM40.4757 42.6891C40.4757 42.6891 32.1775 34.1922 14.5875 32.5276L19.6806 21.9437C19.6806 21.9437 28.5005 20.2295 40.4757 29.2233C52.4508 20.2295 61.2707 21.9437 61.2707 21.9437L66.3639 32.5276C48.7738 34.1922 40.4757 42.6891 40.4757 42.6891Z" fill="#0A5907"/>
<path opacity="0.2" d="M42.7363 37.5447C46.049 35.1016 56.4009 29.6953 63.3574 30.4407" stroke="#0A5907" stroke-width="3" stroke-linecap="round"/>
<path opacity="0.2" d="M42.7363 30.6891C45.6763 28.3872 53.3202 23.8769 60.3761 24.2515" stroke="#0A5907" stroke-width="3" stroke-linecap="round"/>
<path opacity="0.2" d="M42.7363 34.1674C45.9247 31.6883 54.2146 26.8311 61.8668 27.2345" stroke="#0A5907" stroke-width="3" stroke-linecap="round"/>
<path opacity="0.2" d="M38.5117 37.5447C35.1991 35.1016 24.8471 29.6953 17.8906 30.4407" stroke="#0A5907" stroke-width="3" stroke-linecap="round"/>
<path opacity="0.2" d="M38.5117 30.6891C35.5718 28.3872 27.9279 23.8769 20.872 24.2515" stroke="#0A5907" stroke-width="3" stroke-linecap="round"/>
<path opacity="0.2" d="M38.5117 34.1674C35.3233 31.6883 27.0335 26.8311 19.3813 27.2345" stroke="#0A5907" stroke-width="3" stroke-linecap="round"/>
<path d="M40.475 27.3848C40.475 27.3848 40.7235 26.5152 41.1955 26.7637C41.1955 26.7637 40.8974 40.8506 41.3943 46.3413C41.5185 47.7078 42.711 49.5711 43.1831 50.2668H42.562L42.3881 50.8382C42.3881 50.8382 40.5496 47.7326 40.475 46.5152C40.1024 41.0494 40.3011 28.7016 40.475 27.3848Z" fill="#0A5907"/>
</svg>
